<svg width="130" height="36" viewBox="0 0 130 36" fill="none" xmlns="http://www.w3.org/2000/svg">
<g clip-path="url(#clip0_489_5015)">
<path d="M56.9175 9.12012V26.6364H53.2201V19.42H45.3063V26.6364H41.6089V9.12012H45.3063V16.0086H53.2201V9.12012H56.9175Z" fill="white"/>
<path d="M70.2798 18.6976V26.5701H66.7121V25.258C65.804 26.3077 64.312 26.8981 62.885 26.8981C60.0957 26.8981 57.9551 25.1924 57.9551 22.6995C57.9551 20.0753 60.3552 18.304 63.4039 18.304C64.4418 18.304 65.6094 18.5008 66.7121 18.96V18.6976C66.7121 17.3199 65.8688 16.0735 63.7282 16.0735C62.4958 16.0735 61.393 16.4671 60.3552 16.9919L59.1227 14.499C60.939 13.5805 62.7552 13.0557 64.5715 13.0557C67.9446 13.1213 70.2798 15.2862 70.2798 18.6976ZM66.7121 22.4371V21.2562C65.8688 20.9282 64.8958 20.797 63.9228 20.797C62.5606 20.797 61.5228 21.5842 61.5228 22.6339C61.5228 23.6835 62.4309 24.3396 63.7282 24.3396C65.0904 24.3396 66.4526 23.6835 66.7121 22.4371Z" fill="white"/>
<path d="M85.2646 8.79102V26.6354H81.5672V24.7328C80.5293 26.1105 79.0374 26.8978 77.1562 26.8978C73.6534 26.8978 71.1885 24.0112 71.1885 20.0093C71.1885 16.0075 73.7183 13.1209 77.1562 13.1209C78.9725 13.1209 80.5293 13.9081 81.5672 15.2858V8.79102H85.2646ZM81.5672 20.0093C81.5672 17.8444 80.205 16.2699 78.259 16.2699C76.2481 16.2699 74.7562 17.8444 74.7562 20.0093C74.7562 22.2399 76.1832 23.8144 78.259 23.8144C80.205 23.7488 81.5672 22.2399 81.5672 20.0093Z" fill="white"/>
<path d="M85.9785 24.9297L87.5353 22.3711C88.7029 23.224 90.13 23.88 91.8814 23.88C92.8544 23.88 93.5679 23.4864 93.5679 22.8959C93.5679 22.1087 92.5949 21.8463 91.2976 21.4527C88.6381 20.7966 86.5623 20.075 86.5623 17.4508C86.5623 14.9578 88.5732 13.1865 91.6219 13.1865C93.5031 13.1865 95.3193 13.8426 96.7464 14.8266L95.2545 17.4508C94.0869 16.7291 92.7247 16.2699 91.6219 16.2699C90.7138 16.2699 90.0651 16.5979 90.0651 17.0572C90.0651 17.7788 90.5841 17.9756 92.3355 18.4349C94.6058 19.0253 97.0708 19.8125 97.0708 22.6335C97.0708 25.2577 94.995 26.8978 91.7517 26.8978C89.8057 26.8978 87.5353 26.1762 85.9785 24.9297Z" fill="white"/>
<path d="M98.2378 19.0263V9.12012H101.935V18.8951C101.935 21.5849 103.622 23.4874 106.087 23.4874C108.487 23.4874 110.173 21.5849 110.173 18.8951V9.12012H113.936V19.092C113.936 23.6842 110.692 26.9645 106.087 26.9645C101.416 26.8989 98.2378 23.6186 98.2378 19.0263Z" fill="white"/>
<path d="M129.179 20.0095C129.179 24.077 126.649 26.898 123.211 26.898C121.395 26.898 119.903 26.1107 118.865 24.733V30.9654H115.168V13.4491H118.865V15.286C119.903 13.9083 121.395 13.1211 123.211 13.1211C126.649 13.1211 129.179 16.0077 129.179 20.0095ZM125.612 20.0095C125.612 17.8446 124.184 16.2701 122.109 16.2701C120.292 16.2701 118.995 17.5822 118.801 19.4847V20.5344C118.995 22.5025 120.292 23.8146 122.109 23.8146C124.184 23.749 125.612 22.2401 125.612 20.0095Z" fill="white"/>
<path d="M0.48291 23.8809V24.9305L17.8024 35.4272L24.2891 31.4909V30.4413L17.8024 34.3775L0.48291 23.8809Z" fill="white"/>
<path d="M28.635 27.8171L22.1483 23.8809L21.2402 24.4057L17.8022 26.505L18.6455 27.0299L22.1483 24.9305L28.635 28.8668L35.1217 24.9305V23.8809L28.635 27.8171Z" fill="white"/>
<path d="M11.3154 17.3203V18.37L16.9589 21.7814L17.8021 21.2566L11.3154 17.3203Z" fill="white"/>
<path d="M17.8019 21.2566L11.3152 17.3203L17.8019 21.2566L16.9586 21.7814L13.4558 23.8807L6.96912 19.9445L0.482422 23.8807L17.8019 34.3774L24.2886 30.4411L18.6452 27.0297L17.8019 26.5049L21.2399 24.4056L22.148 23.8807L28.6347 27.817L35.1214 23.8807L24.2886 17.3203L17.8019 21.2566Z" fill="white"/>
<path d="M16.5039 20.4685L17.8012 21.2557L18.2553 20.9933L16.958 20.2061L16.5039 20.4685Z" fill="white"/>
<path d="M14.3633 19.1569L15.6606 19.9442L16.0498 19.6818L14.7525 18.8945L14.3633 19.1569Z" fill="white"/>
<path d="M12.1577 17.8444L13.4551 18.6317L13.9091 18.3693L12.6118 17.582L12.1577 17.8444Z" fill="white"/>
<path d="M10.0176 16.5329L11.3149 17.3202L11.769 17.0578L10.4716 16.2705L10.0176 16.5329Z" fill="white"/>
<path d="M7.81201 15.2204L9.10935 16.0077L9.56342 15.7453L8.26608 14.958L7.81201 15.2204Z" fill="white"/>
<path d="M5.67188 13.9079L6.96921 14.6952L7.42328 14.4328L6.12594 13.6455L5.67188 13.9079Z" fill="white"/>
<path d="M3.53125 12.5964L4.82859 13.3837L5.21779 13.1212L3.98532 12.334L3.53125 12.5964Z" fill="white"/>
<path d="M1.3252 11.2849L2.62253 12.0721L3.0766 11.8097L1.77926 11.0225L1.3252 11.2849Z" fill="white"/>
<path d="M21.6934 16.2702L22.9907 17.0575L23.4448 16.7951L22.1474 16.0078L21.6934 16.2702Z" fill="white"/>
<path d="M21.2393 15.4826L19.9419 14.6953L19.5527 14.9577L20.8501 15.745L21.2393 15.4826Z" fill="white"/>
<path d="M19.0991 14.1709L17.8018 13.3837L19.0991 12.5964L18.645 12.334L16.9585 13.3837L18.645 14.4333L19.0991 14.1709Z" fill="white"/>
<path d="M15.6601 12.0713L15.2061 12.3337L16.5034 13.121L16.9575 12.8585L15.6601 12.0713Z" fill="white"/>
<path d="M13.4556 10.7588L13.0664 11.0212L14.3637 11.8085L14.7529 11.546L13.4556 10.7588Z" fill="white"/>
<path d="M11.3149 9.44727L10.8608 9.70968L12.1582 10.4969L12.6122 10.2345L11.3149 9.44727Z" fill="white"/>
<path d="M9.17477 8.13477L8.7207 8.39718L10.018 9.18443L10.4072 8.92202L9.17477 8.13477Z" fill="white"/>
<path d="M6.96969 6.82324L6.51562 7.08566L7.81296 7.87291L8.26703 7.61049L6.96969 6.82324Z" fill="white"/>
<path d="M1.77976 9.97266L0.482422 10.7599L0.936491 11.0223L2.23383 10.2351L1.77976 9.97266Z" fill="white"/>
<path d="M4.37446 8.92257L3.92039 8.66016L2.62305 9.44741L3.07712 9.70982L4.37446 8.92257Z" fill="white"/>
<path d="M6.57953 7.61007L6.12546 7.34766L4.82812 8.13491L5.21733 8.39732L6.57953 7.61007Z" fill="white"/>
<path d="M18.2559 20.4679L18.6451 20.7303L19.9424 19.9431L19.5532 19.6807L18.2559 20.4679Z" fill="white"/>
<path d="M20.3965 19.1564L20.8506 19.4188L22.1479 18.6316L21.6938 18.3691L20.3965 19.1564Z" fill="white"/>
<path d="M22.5371 17.8449L22.9912 18.1073L24.2885 17.32L23.8344 17.0576L22.5371 17.8449Z" fill="white"/>
<path d="M27.3379 13.9079L28.6352 14.6952L29.0244 14.4328L27.7271 13.6455L27.3379 13.9079Z" fill="white"/>
<path d="M25.1318 12.5964L26.4292 13.3837L26.8832 13.1212L25.5859 12.334L25.1318 12.5964Z" fill="white"/>
<path d="M22.9907 11.2849L24.2881 12.0721L24.7421 11.8097L23.4448 11.0225L22.9907 11.2849Z" fill="white"/>
<path d="M22.1474 10.7596L22.5366 10.4972L21.2393 9.70996L20.8501 9.97238L22.1474 10.7596Z" fill="white"/>
<path d="M19.9419 9.44713L20.3959 9.18471L19.0986 8.39746L18.6445 8.65988L19.9419 9.44713Z" fill="white"/>
<path d="M14.7525 5.77344L14.3633 6.03585L15.6606 6.8231L16.0498 6.56069L14.7525 5.77344Z" fill="white"/>
<path d="M12.1577 4.72335L13.4551 5.5106L13.9091 5.24819L12.6118 4.46094L12.1577 4.72335Z" fill="white"/>
<path d="M34.2129 10.2345L32.9156 9.44727L32.5264 9.70968L33.8237 10.4969L34.2129 10.2345Z" fill="white"/>
<path d="M32.0727 8.92202L30.7754 8.13477L30.3213 8.39718L31.6186 9.18443L32.0727 8.92202Z" fill="white"/>
<path d="M29.9316 7.61049L28.6342 6.82324L28.1802 7.08566L29.4775 7.87291L29.9316 7.61049Z" fill="white"/>
<path d="M26.4292 5.51074L26.04 5.77316L27.3374 6.56041L27.7266 6.29799L26.4292 5.51074Z" fill="white"/>
<path d="M24.289 4.19922L23.835 4.46164L25.1323 5.24889L25.5864 4.98647L24.289 4.19922Z" fill="white"/>
<path d="M23.4448 3.67397L22.1474 2.88672L21.6934 3.14914L22.9907 3.93639L23.4448 3.67397Z" fill="white"/>
<path d="M21.2393 2.36147L19.9419 1.57422L19.5527 1.83664L20.8501 2.62389L21.2393 2.36147Z" fill="white"/>
<path d="M19.0991 1.04995L17.8017 0.262695L17.3477 0.525112L18.645 1.31236L19.0991 1.04995Z" fill="white"/>
<path d="M13.0668 3.67355L12.6128 3.41113L11.3154 4.19838L11.7046 4.4608L13.0668 3.67355Z" fill="white"/>
<path d="M15.2065 2.36203L14.7524 2.09961L13.4551 2.88686L13.9091 3.14928L15.2065 2.36203Z" fill="white"/>
<path d="M17.3472 1.04953L16.958 0.787109L15.6606 1.57436L16.0498 1.83678L17.3472 1.04953Z" fill="white"/>
<path d="M29.0234 13.9083L29.4775 14.1708L30.7748 13.3835L30.3208 13.1211L29.0234 13.9083Z" fill="white"/>
<path d="M31.2295 12.5958L31.6187 12.8583L32.916 12.071L32.5268 11.8086L31.2295 12.5958Z" fill="white"/>
<path d="M34.666 10.4971L33.3687 11.2843L33.8227 11.5467L35.1201 10.7595L34.666 10.4971Z" fill="white"/>
<path d="M16.0498 9.70968L15.6606 9.44727L14.3633 10.2345L14.7525 10.4969L16.0498 9.70968Z" fill="white"/>
<path d="M16.958 9.18527L18.6445 8.1356L18.2553 7.87319L16.958 7.08594L16.5039 7.34835L17.8012 8.1356L16.5039 8.92285L16.958 9.18527Z" fill="white"/>
<path d="M20.8501 11.0225L19.5527 11.8097L19.9419 12.0721L21.2393 11.2849L20.8501 11.0225Z" fill="white"/>
</g>
<defs>
<clipPath id="clip0_489_5015">
<rect width="128.696" height="35.1638" fill="white" transform="translate(0.482422 0.262695)"/>
</clipPath>
</defs>
</svg>
