<svg width="81" height="36" viewBox="0 0 81 36" fill="none" xmlns="http://www.w3.org/2000/svg">
<path fill-rule="evenodd" clip-rule="evenodd" d="M14.4963 0.216659C14.2908 0.333973 13.9944 0.731724 13.8375 1.1004C13.632 1.58379 13.5525 2.68025 13.5525 5.0317C13.5525 6.82526 13.4925 9.78977 13.419 11.6194C13.3042 14.4781 13.2412 14.9376 12.9702 14.8864C12.7967 14.8536 12.5893 14.5584 12.5095 14.2306C12.4296 13.9027 12.174 12.8726 11.9415 11.9414C11.709 11.0103 11.3816 9.30737 11.2138 8.15714C11.0462 7.00691 10.776 5.61767 10.6134 5.06994C10.4509 4.52221 10.1379 3.78765 9.91796 3.43751C9.69783 3.08756 9.28028 2.64818 8.99001 2.46115C8.48651 2.1371 8.43644 2.13989 7.91612 2.51931C7.61592 2.7382 7.25248 3.13277 7.10857 3.39608C6.93181 3.71954 6.88702 4.26249 6.97033 5.06994C7.03823 5.72721 7.31856 7.47497 7.59322 8.95383C7.86767 10.4327 8.31766 12.5686 8.59272 13.7002C8.86799 14.8319 9.09319 16.0918 9.09319 16.5003C9.09319 16.9089 8.97319 17.4044 8.82643 17.6016C8.67968 17.7988 8.38638 17.9272 8.17435 17.887C7.96253 17.847 7.5464 17.4564 7.24965 17.019C6.9529 16.5816 6.08332 15.1105 5.31732 13.75C4.55113 12.3892 3.55953 10.8938 3.11359 10.4267C2.66765 9.95966 2.11186 9.52527 1.87855 9.46133C1.60876 9.38744 1.25019 9.50316 0.893032 9.77901C0.394597 10.1642 0.343112 10.3108 0.432096 11.0874C0.494122 11.6289 0.816007 12.3942 1.27694 13.0971C1.6866 13.7213 2.55718 15.3075 3.2119 16.622C3.86661 17.9366 4.8118 20.2669 5.31246 21.8006C5.81333 23.3342 6.74047 26.2023 7.37289 28.1741C8.00551 30.146 8.7109 32.073 8.94076 32.4564C9.17041 32.8398 9.73189 33.5449 10.1886 34.0233C10.6452 34.5017 11.4749 35.1058 12.0323 35.3659C12.683 35.6693 13.4086 35.8376 14.0593 35.8362C14.6167 35.835 15.703 35.6155 16.4732 35.3484C17.2435 35.0813 18.5914 34.4366 19.4685 33.9155C20.5187 33.2917 21.6672 32.3494 22.8315 31.1566C23.804 30.1601 25.3092 28.5699 26.1766 27.6226C27.1177 26.5951 28.5889 25.3064 29.8252 24.4271C30.9645 23.6166 32.3437 22.7002 32.8897 22.3905C33.4358 22.0808 34.1884 21.5271 34.562 21.16C34.9542 20.7746 35.2412 20.2912 35.2412 20.0158C35.2412 19.7335 35.0136 19.3619 34.6838 19.1049C34.2048 18.7319 33.9411 18.6839 32.8089 18.7626C31.8752 18.8275 31.1368 19.0315 30.2751 19.4623C29.6062 19.7967 28.4661 20.5408 27.7414 21.1158C27.0168 21.6908 26.059 22.3246 25.6131 22.5242C25.1671 22.7239 24.4105 22.8893 23.9317 22.8916C23.2711 22.895 22.9395 22.7767 22.5576 22.4015C22.2809 22.1296 21.8593 21.4797 21.6207 20.9575C21.3049 20.2663 21.1851 19.6017 21.1807 18.5142C21.1754 17.2538 21.3057 16.6623 22.0154 14.7299C22.478 13.4701 23.139 11.095 23.4841 9.45177C23.8293 7.80858 24.1664 5.77362 24.2331 4.92952C24.3316 3.6805 24.2903 3.29908 24.0101 2.87902C23.8208 2.5952 23.4464 2.26477 23.1783 2.14467C22.7923 1.97178 22.5836 1.99509 22.1782 2.2562C21.8962 2.43765 21.489 2.92623 21.2731 3.3421C21.0574 3.75778 20.7386 4.63733 20.5647 5.2966C20.3908 5.95586 20.0626 7.73867 19.8354 9.25857C19.608 10.7785 19.2946 12.5015 19.1389 13.0873C18.9832 13.6733 18.7094 14.3722 18.5306 14.6405C18.3324 14.9376 18.0119 15.1282 17.7103 15.1282C17.4251 15.1282 17.1247 14.9617 17.0013 14.7351C16.8681 14.4907 16.7629 11.9837 16.7234 8.11252C16.6688 2.78163 16.6098 1.76922 16.3143 1.09342C16.1246 0.659025 15.8586 0.234784 15.7236 0.150334C15.5886 0.0660835 15.3414 -0.00163571 15.1741 0.000156855C15.0069 0.00175025 14.7018 0.0991465 14.4963 0.216659ZM66.5232 3.05708C66.0801 3.43173 65.9591 3.70559 65.9591 4.33578C65.9591 4.85443 66.1008 5.29202 66.3601 5.57484C66.5804 5.81525 66.9791 6.09389 67.2461 6.19428C67.5572 6.31099 67.9754 6.29745 68.411 6.15603C68.7847 6.03494 69.2276 5.74335 69.3953 5.50832C69.5629 5.27329 69.6999 4.75445 69.6999 4.3557C69.6999 3.83765 69.5473 3.48033 69.1656 3.10528C68.7752 2.72187 68.4229 2.58026 67.8592 2.58026C67.3373 2.58026 66.9047 2.73462 66.5232 3.05708ZM29.7684 9.85012V15.9249H31.4913H33.2143V13.2474C33.2143 10.7062 33.2372 10.554 33.6649 10.2598C33.9126 10.0893 34.396 9.94971 34.7392 9.94971C35.0821 9.94971 35.4723 10.0573 35.6061 10.1887C35.7717 10.3514 35.8493 11.3041 35.8493 13.1763V15.9249H37.5723H39.2952V12.3207C39.2952 9.35915 39.2368 8.61942 38.9676 8.17148C38.7872 7.87172 38.4453 7.50624 38.2075 7.35925C37.9696 7.21245 37.4316 7.02981 37.012 6.95373C36.5924 6.87764 35.8333 6.89178 35.3252 6.985C34.817 7.07821 34.1341 7.34152 33.8078 7.56977L33.2143 7.98505V5.88018V3.77531H31.4913H29.7684V9.85012ZM70.5107 9.85012V15.9249H72.2337H73.9566L73.9631 14.9789C73.9665 14.4586 74.1025 13.8601 74.2649 13.649C74.4275 13.4378 74.5935 13.3034 74.6336 13.3502C74.6739 13.397 75.0068 13.9955 75.3735 14.6801L76.0401 15.9249H78.152C79.7866 15.9249 80.2303 15.8686 80.1144 15.676C80.0319 15.5391 79.3425 14.5114 78.5822 13.392C77.8218 12.2729 77.1998 11.2593 77.1998 11.1396C77.1998 11.0199 77.7618 10.1879 78.449 9.29064C79.1359 8.39336 79.7856 7.54727 79.8926 7.41023C80.0454 7.21484 79.6346 7.16127 77.981 7.16127H75.8747L74.9664 8.58457L74.0579 10.0077L74.0022 6.89158L73.9463 3.77531H72.2286H70.5107V9.85012ZM60.5378 5.80887L60.4772 7.06168L59.717 7.12342C58.9922 7.18238 58.9569 7.21823 58.9569 7.89761V8.60986L58.4038 8.06631C58.0995 7.76715 57.6205 7.40585 57.3396 7.26324C57.0585 7.12064 56.5093 6.98161 56.1192 6.95413C55.729 6.92664 55.1659 6.91728 54.8679 6.93321C54.5697 6.94915 54.0453 7.19413 53.7024 7.47775C53.1022 7.9739 53.0787 7.97768 53.0787 7.57734C53.0787 7.18796 52.968 7.16127 51.3557 7.16127H49.6328V13.2361V19.3109H51.3557H53.0787V17.2255V15.1402L53.8165 15.6321C54.3472 15.9861 54.8268 16.1241 55.5261 16.1241C56.0608 16.1241 56.755 16.0289 57.0688 15.9128C57.3826 15.7965 57.9384 15.418 58.3036 15.0717C58.6979 14.698 59.0895 14.0405 59.2664 13.4544C59.4306 12.911 59.565 11.9452 59.565 11.3077C59.565 10.2044 59.5893 10.1489 60.0718 10.1489H60.5785V12.2502C60.5785 13.7388 60.6681 14.5218 60.886 14.9356C61.0551 15.2569 61.4611 15.6558 61.788 15.822C62.1253 15.9933 62.9079 16.1241 63.5957 16.1241C64.263 16.1241 65.0427 16.0367 65.3287 15.9299C65.6571 15.8072 65.8487 15.5828 65.8487 15.321C65.8487 15.093 65.7479 14.513 65.6247 14.0324C65.4254 13.2544 65.331 13.152 64.7632 13.0979L64.1257 13.0369L64.0663 11.6048L64.0072 10.1726L64.8771 10.111L65.7473 10.0493L65.8069 8.60528L65.8665 7.16127H64.9552H64.0436L63.9834 5.91643L63.923 4.67159L62.2607 4.61383L60.5982 4.55627L60.5378 5.80887ZM43.2367 6.96349C42.673 7.04316 41.7955 7.28934 41.2865 7.51062C40.7775 7.7319 40.3002 8.00955 40.2258 8.12766C40.1514 8.24597 40.273 8.68176 40.4958 9.09644C40.7188 9.51093 40.978 9.96146 41.0719 10.0975C41.2038 10.2885 41.4233 10.2544 42.0349 9.94811C42.4705 9.72982 43.218 9.55136 43.696 9.55136C44.2952 9.55136 44.6914 9.67524 44.9708 9.94971C45.1937 10.1688 45.3762 10.5624 45.3762 10.8245V11.3009L44.6239 10.9241C44.131 10.6773 43.4493 10.5474 42.6476 10.548C41.7777 10.5484 41.2294 10.6649 40.7526 10.9508C40.3766 11.1758 39.944 11.6761 39.7689 12.088C39.5806 12.531 39.4975 13.1263 39.5601 13.585C39.6173 14.0039 39.8141 14.5717 39.9974 14.8466C40.1808 15.1215 40.6223 15.521 40.9784 15.7345C41.4132 15.995 41.9939 16.1229 42.7441 16.1233C43.4763 16.1239 44.1231 15.9865 44.6191 15.7254C45.2474 15.3943 45.3762 15.3774 45.3762 15.6258C45.3762 15.8684 45.7017 15.9249 47.0991 15.9249H48.822V13.1251C48.822 11.5851 48.7201 9.9274 48.5954 9.44102C48.4649 8.93153 48.1069 8.30532 47.7508 7.96314C47.4108 7.6365 46.8516 7.28575 46.5078 7.18357C46.164 7.0814 45.518 6.95751 45.0721 6.90832C44.6262 6.85912 43.8002 6.88402 43.2367 6.96349ZM66.0514 11.5431V15.9249H67.7743H69.4972V11.5431V7.16127H67.7743H66.0514V11.5431ZM55.5111 10.3481C55.78 10.6124 55.9165 11.0119 55.9165 11.5353C55.9165 12.0904 55.7849 12.4446 55.4728 12.7304C55.2289 12.9537 54.7931 13.1365 54.5045 13.1365C54.2158 13.1365 53.777 12.9969 53.5293 12.8264C53.164 12.5752 53.0787 12.3245 53.0787 11.5041C53.0787 10.7733 53.1774 10.418 53.4334 10.227C53.6284 10.0814 54.0845 9.95947 54.4469 9.95608C54.8424 9.9523 55.2678 10.109 55.5111 10.3481ZM45.1917 13.0584C45.4216 13.3307 45.4041 13.4205 45.0764 13.6559C44.8641 13.8085 44.4 13.9332 44.0446 13.9332C43.6895 13.9332 43.2853 13.7987 43.1465 13.6344C42.9452 13.396 42.9452 13.2753 43.1465 13.0369C43.2888 12.8684 43.7306 12.7381 44.16 12.7381C44.612 12.7381 45.031 12.8682 45.1917 13.0584Z" fill="white"/>
</svg>
