<svg width="108" height="43" viewBox="0 0 108 43" fill="none" xmlns="http://www.w3.org/2000/svg">
<path fill-rule="evenodd" clip-rule="evenodd" d="M40.3241 0.850289C39.7548 0.936495 38.7251 1.15566 38.036 1.33712C37.3468 1.51868 36.3416 1.84214 35.8023 2.05608C35.2629 2.2699 34.4294 2.64034 33.9499 2.87934C33.4705 3.11823 32.6615 3.58435 32.1521 3.91511C31.6427 4.24588 30.9317 4.74121 30.5722 5.01584C30.2126 5.29059 29.4099 6.00726 28.7882 6.60841C28.1666 7.20967 27.3516 8.09385 26.977 8.57338C26.6024 9.05291 26.0259 9.86211 25.6958 10.3716C25.3658 10.8811 24.9002 11.6903 24.6614 12.1698C24.4224 12.6493 24.048 13.4911 23.8293 14.0403C23.6107 14.5896 23.2879 15.5949 23.1121 16.2745C22.9362 16.9541 22.7163 18.0313 22.6235 18.6683C22.5254 19.3408 22.4546 20.5692 22.4546 21.5969C22.4546 22.6268 22.5253 23.8516 22.6237 24.5255C22.7167 25.1625 22.913 26.1645 23.0599 26.7519C23.2067 27.3394 23.5045 28.2957 23.7217 28.877C23.9387 29.4585 24.3358 30.3719 24.6038 30.907C24.8719 31.4421 25.3355 32.2739 25.6342 32.7554C25.9327 33.237 26.4992 34.0436 26.8929 34.5479C27.2866 35.0522 28.0365 35.8927 28.5593 36.4156C29.0821 36.9385 29.9206 37.6864 30.4224 38.0774C30.9243 38.4684 31.6834 39.0132 32.1095 39.2881C32.5356 39.563 33.4182 40.0524 34.0708 40.3757C34.7234 40.6992 35.6007 41.0917 36.0202 41.248C36.4397 41.4043 37.1997 41.6516 37.7091 41.7974C38.2185 41.9433 39.052 42.1396 39.5614 42.2338C40.0708 42.328 41.1333 42.459 41.9224 42.5248C42.9599 42.6113 43.768 42.6116 44.8412 42.526C45.6573 42.4607 46.6962 42.3364 47.1497 42.2496C47.6033 42.1627 48.4474 41.9634 49.0253 41.8066C49.6032 41.6498 50.6154 41.3018 51.2747 41.0335C51.9339 40.7651 52.841 40.3457 53.2904 40.1012C53.7399 39.8569 54.598 39.3229 55.1972 38.9145C55.7965 38.506 56.7183 37.7975 57.2457 37.3398C57.7731 36.8822 58.597 36.0586 59.0768 35.5095C59.5565 34.9606 60.2825 34.0209 60.6902 33.4215C61.0979 32.8221 61.6313 31.9639 61.8755 31.5143C62.1199 31.0648 62.5393 30.1575 62.8076 29.4981C63.0759 28.8388 63.4238 27.8263 63.5806 27.2483C63.7374 26.6702 63.9366 25.8261 64.0235 25.3724C64.1102 24.9188 64.2342 23.8837 64.299 23.0722C64.3833 22.0166 64.3834 21.1785 64.2994 20.1262C64.2349 19.3174 64.086 18.1771 63.9688 17.5924C63.8515 17.0076 63.6372 16.1368 63.4924 15.6573C63.3476 15.1778 63.1026 14.4517 62.9478 14.0439C62.793 13.6361 62.4218 12.8136 62.1227 12.2161C61.8237 11.6187 61.3504 10.7753 61.071 10.3421C60.7915 9.90875 60.2431 9.14358 59.8521 8.6416C59.4612 8.13963 58.7135 7.301 58.1907 6.7781C57.6679 6.2552 56.8276 5.50507 56.3233 5.11131C55.8192 4.71756 55.0128 4.15095 54.5313 3.85234C54.0499 3.55362 53.2182 3.08989 52.6832 2.82179C52.1482 2.5537 51.2447 2.16038 50.6754 1.94775C50.1061 1.73512 49.1499 1.43782 48.5506 1.28688C47.9514 1.13604 46.9399 0.936059 46.303 0.842333C45.566 0.734004 44.4567 0.676025 43.2521 0.682782C42.211 0.688667 40.8934 0.764083 40.3241 0.850289ZM44.9505 3.40137C45.4874 3.46283 46.2965 3.58816 46.7483 3.67971C47.2003 3.77126 48.0848 4.01985 48.7141 4.23214C49.3433 4.44444 50.422 4.9074 51.1112 5.26084C51.8004 5.61438 52.829 6.23449 53.3969 6.63904C53.9648 7.04358 54.9454 7.89093 55.5761 8.52205C56.2068 9.15317 56.9331 9.96237 57.1903 10.3203C57.4476 10.6782 57.7613 11.1427 57.8875 11.3524C58.1132 11.7277 58.1111 11.7268 57.7502 11.298C57.5485 11.0582 57.0632 10.5258 56.6717 10.1148C56.2803 9.70386 55.5922 9.07067 55.1428 8.70776C54.6933 8.34484 53.9958 7.83622 53.5928 7.57749C53.1898 7.31877 52.4298 6.8909 51.9039 6.62683C51.3781 6.36266 50.5065 5.99059 49.9671 5.79998C49.4278 5.60936 48.5942 5.36274 48.1148 5.25179C47.6354 5.14085 46.7606 4.99023 46.1709 4.9171C45.5196 4.83635 44.4931 4.80747 43.5559 4.84365C42.7073 4.87634 41.5717 4.98315 41.0324 5.08101C40.493 5.17877 39.4737 5.45178 38.7673 5.68761C38.0609 5.92356 36.9467 6.39088 36.2914 6.72612C35.6361 7.06135 34.6696 7.63863 34.1436 8.00906C33.6176 8.37939 32.6233 9.24646 31.9342 9.936C31.245 10.6254 30.4035 11.5818 30.0642 12.0612C29.7248 12.5405 29.2411 13.3153 28.9893 13.783C28.7374 14.2506 28.554 14.6558 28.5817 14.6835C28.6093 14.7112 29.2156 14.6578 29.929 14.5648C30.6423 14.4719 31.7688 14.2746 32.4321 14.1264C33.0956 13.9782 34.3704 13.6591 35.2651 13.4172C36.1599 13.1755 37.4803 12.859 38.1994 12.714C38.9185 12.5689 40.1934 12.3929 41.0324 12.3229C41.9027 12.2503 43.3299 12.2221 44.3557 12.2572C45.3445 12.2911 46.7174 12.4008 47.4066 12.5008C48.0957 12.6009 49.4196 12.8782 50.3485 13.117C51.2774 13.3559 52.6803 13.7135 53.4661 13.9117C54.2519 14.1099 55.6028 14.3748 56.468 14.5003C57.3334 14.6258 58.8357 14.7612 59.8064 14.8012L61.5714 14.874V15.2001V15.5263L60.0187 15.4512C59.1648 15.4099 58.0003 15.3255 57.4309 15.2637C56.8616 15.2021 55.881 15.0548 55.2517 14.9366C54.6225 14.8184 53.0044 14.4322 51.656 14.0782C50.3076 13.7244 48.8122 13.3628 48.3327 13.2746C47.8533 13.1864 46.8772 13.0548 46.1636 12.9821C45.3433 12.8985 44.0412 12.8719 42.6224 12.9098C41.3883 12.9427 39.8638 13.0506 39.2345 13.1495C38.6053 13.2483 37.0362 13.6022 35.7478 13.9358C34.4593 14.2694 32.8658 14.6588 32.2066 14.8012C31.5473 14.9436 30.4108 15.1313 29.681 15.2184C28.951 15.3055 27.6394 15.4105 26.7663 15.4519L25.1786 15.5268V15.1834C25.1786 14.84 25.1787 14.8399 25.774 14.8399H26.3693L26.9742 13.5673C27.3067 12.8674 27.8941 11.8253 28.2795 11.2514C28.6648 10.6776 29.3268 9.80674 29.7506 9.31621C30.1744 8.82568 30.9739 8.04427 31.5273 7.57978C32.0807 7.11518 32.9375 6.47164 33.4314 6.14959C33.9252 5.82744 34.8323 5.32383 35.4472 5.03045C36.0619 4.73695 37.0182 4.34897 37.572 4.16828C38.1258 3.98748 38.968 3.76079 39.4434 3.66445C39.9188 3.56811 40.6424 3.4503 41.0514 3.40278C41.4605 3.35527 42.2854 3.31026 42.8847 3.30295C43.484 3.29554 44.4136 3.33979 44.9505 3.40137ZM35.094 17.0196C35.2139 17.1395 35.3119 17.3389 35.3119 17.4627C35.3119 17.5865 35.26 17.785 35.1963 17.9039C35.1328 18.0227 34.9612 18.1653 34.815 18.2209C34.6516 18.283 34.4468 18.283 34.2835 18.2209C34.1372 18.1653 33.9615 18.0148 33.8928 17.8865C33.8242 17.7582 33.7967 17.5386 33.8318 17.3985C33.867 17.2584 33.9727 17.0668 34.0668 16.9727C34.1609 16.8785 34.3815 16.8016 34.5569 16.8016C34.7325 16.8016 34.9742 16.8997 35.094 17.0196ZM30.4341 20.2073L30.4632 23.0681H31.7981H33.1331L33.1328 23.4525C33.1328 23.6641 33.0563 23.946 32.9631 24.0792C32.7981 24.3148 32.738 24.3214 30.7566 24.3214H28.7198V20.834V17.3465H29.5624H30.4051L30.4341 20.2073ZM44.5736 18.1639V18.8723H45.348C46.0094 18.8723 46.1127 18.8975 46.0562 19.0447C46.0198 19.1395 45.9901 19.2602 45.9901 19.3129C45.9901 19.3655 45.8827 19.5087 45.7516 19.6309C45.5881 19.7833 45.3655 19.8531 45.0433 19.8531H44.5736V21.4091C44.5736 22.641 44.6089 23.0156 44.7432 23.2073C44.8634 23.3791 45.0236 23.4496 45.2934 23.4496C45.5027 23.4496 45.8187 23.3747 45.9955 23.2833C46.1723 23.1918 46.317 23.1418 46.317 23.1721C46.317 23.2024 46.2375 23.4258 46.1404 23.6685C46.0434 23.9112 45.8649 24.1629 45.7438 24.2276C45.6229 24.2923 45.374 24.3884 45.191 24.4409C44.9843 24.5002 44.6905 24.4919 44.4161 24.4192C44.1732 24.3547 43.8595 24.196 43.7191 24.0665C43.5788 23.937 43.4072 23.7329 43.3378 23.6131C43.2639 23.4853 43.189 22.6727 43.1571 21.6514L43.1026 19.9076L42.7971 19.8725C42.5104 19.8397 42.4936 19.8094 42.5247 19.3821C42.5542 18.9761 42.5903 18.9231 42.8575 18.8923C43.1326 18.8606 43.1571 18.8194 43.1571 18.3892C43.1571 17.9252 43.1627 17.9185 43.7291 17.6952C44.0437 17.5711 44.3625 17.4665 44.4374 17.4626C44.5331 17.4576 44.5736 17.6661 44.5736 18.1639ZM40.4093 18.9326C40.6322 19.0256 40.9538 19.2341 41.1241 19.3957C41.2943 19.5574 41.5358 19.8858 41.6604 20.1256C41.8174 20.4274 41.9024 20.8389 41.9366 21.463C41.9829 22.3075 41.9641 22.4093 41.6364 23.0749C41.3923 23.5711 41.1601 23.8692 40.8669 24.0634C40.6359 24.2162 40.2602 24.3833 40.0321 24.4349C39.7829 24.491 39.422 24.4847 39.1286 24.4189C38.8599 24.3586 38.4795 24.187 38.2835 24.0374L37.927 23.7654V25.0788V26.3921L37.6273 26.3837C37.4626 26.3792 37.1316 26.3163 36.8919 26.2441L36.456 26.1128L36.4015 22.4881L36.3471 18.8635L37.0553 18.8951C37.7379 18.9256 37.7647 18.9377 37.798 19.2265C37.8169 19.3913 37.8723 19.5262 37.9209 19.5262C37.9695 19.5262 38.0766 19.4449 38.1589 19.3455C38.241 19.246 38.5045 19.0754 38.7442 18.9663C38.9839 18.8574 39.3655 18.767 39.5921 18.7657C39.8188 18.7644 40.1865 18.8395 40.4093 18.9326ZM50.7477 19.0716C50.9938 19.1971 51.3552 19.46 51.5509 19.6558C51.7467 19.8516 51.9964 20.2091 52.1059 20.4501C52.2326 20.7291 52.3055 21.1459 52.3063 21.5969C52.3073 22.1137 52.2384 22.4539 52.0519 22.8546C51.9112 23.1567 51.6298 23.5444 51.4264 23.716C51.2231 23.8878 50.8606 24.1176 50.6209 24.227C50.3498 24.3505 49.9264 24.4265 49.5006 24.428C49.1241 24.4293 48.646 24.3594 48.4382 24.2725C48.2304 24.1856 47.8967 23.9897 47.6966 23.8371C47.4965 23.6844 47.1901 23.3018 47.0155 22.9868C46.7434 22.4956 46.6986 22.2981 46.7005 21.5969C46.702 21.0169 46.761 20.6688 46.9034 20.3981C47.0138 20.1883 47.2579 19.853 47.446 19.6531C47.6341 19.4532 47.9347 19.2129 48.1142 19.1189C48.2935 19.0251 48.5632 18.9079 48.7134 18.8586C48.8636 18.8093 49.2821 18.7856 49.6434 18.8061C50.029 18.8279 50.4852 18.9376 50.7477 19.0716ZM57.3532 19.0305C57.5055 19.1304 57.7177 19.393 57.8248 19.6144C57.9838 19.9429 58.0304 20.411 58.0794 22.1692L58.1392 24.3218L57.3492 24.3217L56.5592 24.3214V22.3296C56.5592 20.703 56.5281 20.2931 56.3896 20.0954C56.289 19.9517 56.1059 19.8531 55.9394 19.8531C55.7851 19.8531 55.4988 19.952 55.3034 20.0728C55.108 20.1936 54.8601 20.4756 54.7527 20.6995C54.611 20.9944 54.5442 21.4568 54.5099 22.3798C54.482 23.1325 54.5102 23.7897 54.5791 23.9873L54.6956 24.3214H53.8841H53.0725V21.7693C53.0725 20.3656 53.0428 19.1395 53.0064 19.0447C52.9503 18.8983 53.0475 18.8723 53.6485 18.8723C54.1954 18.8723 54.3719 18.9117 54.4232 19.0456C54.4598 19.1409 54.4643 19.2602 54.4331 19.3105C54.4019 19.361 54.4299 19.4352 54.4953 19.4756C54.5606 19.5159 54.7211 19.4485 54.8519 19.3255C54.9828 19.2026 55.2611 19.0246 55.4704 18.9302C55.7254 18.815 56.0533 18.7732 56.4637 18.8036C56.8006 18.8287 57.2009 18.9308 57.3532 19.0305ZM35.3119 21.5969V24.3214H34.4975H33.683L33.7892 24.0419C33.8476 23.8881 33.8955 22.7878 33.8955 21.5969C33.8955 20.4059 33.8476 19.3056 33.7892 19.1518L33.683 18.8723H34.4975H35.3119V21.5969ZM38.4473 19.9141C38.2839 20.0027 38.1001 20.1692 38.0387 20.2839C37.9772 20.3988 37.927 21.1034 37.927 21.8497V23.2068L38.3189 23.3928C38.5799 23.5167 38.8338 23.5558 39.0785 23.5098C39.2806 23.4719 39.5964 23.3144 39.78 23.1598C39.9637 23.0051 40.1793 22.7497 40.259 22.592C40.3387 22.4343 40.436 22.1282 40.4751 21.9117C40.5143 21.6953 40.4921 21.2658 40.426 20.9572C40.3467 20.5876 40.1946 20.2853 39.9797 20.0702C39.7194 19.81 39.5618 19.745 39.1989 19.7485C38.9488 19.7509 38.6106 19.8255 38.4473 19.9141ZM48.7802 19.9725C48.6206 20.098 48.3934 20.3903 48.2752 20.622C48.145 20.8774 48.0603 21.261 48.0603 21.596C48.0603 21.9001 48.1284 22.3118 48.2117 22.5111C48.2949 22.7103 48.4976 22.9983 48.6621 23.1507C48.8266 23.3033 49.1047 23.4569 49.2802 23.492C49.4558 23.5271 49.7605 23.4884 49.9578 23.4061C50.1549 23.3237 50.4212 23.1088 50.5495 22.9284C50.6779 22.7482 50.8376 22.3625 50.9045 22.0715C50.9964 21.6722 50.994 21.423 50.8948 21.0559C50.8137 20.7554 50.6056 20.4117 50.3509 20.1568C50.0115 19.8174 49.8612 19.7442 49.5044 19.7442C49.2288 19.7442 48.9644 19.8275 48.7802 19.9725ZM30.2998 27.2752C31.1687 27.3967 32.8358 27.7442 34.0044 28.0473C35.173 28.3503 36.5949 28.7118 37.1643 28.8505C37.7336 28.9891 38.7633 29.1908 39.4524 29.2987C40.4122 29.4489 41.3432 29.4949 43.4295 29.4949C45.5165 29.4949 46.4465 29.449 47.4066 29.2986C48.0957 29.1906 49.6157 28.8538 50.7843 28.5501C51.9529 28.2464 53.5134 27.861 54.252 27.6936C54.9905 27.5263 56.1918 27.3131 56.9215 27.22C57.6511 27.1267 58.9959 27.0174 59.9098 26.9769L61.5714 26.9035V27.2472C61.5714 27.5719 61.5487 27.5909 61.1623 27.5909C60.7608 27.5909 60.7482 27.6038 60.4925 28.2721C60.3492 28.6468 60.0861 29.2475 59.9078 29.6071C59.7296 29.9668 59.313 30.6779 58.9823 31.1874C58.6516 31.6969 58.1003 32.457 57.7573 32.8766C57.4143 33.2962 56.7576 33.9965 56.298 34.4328C55.8384 34.8692 55.0749 35.5135 54.6013 35.8646C54.1278 36.2158 53.3082 36.7484 52.78 37.0481C52.2517 37.3478 51.3635 37.7736 50.8062 37.9942C50.2489 38.2149 49.3254 38.5142 48.7538 38.6593C48.1821 38.8042 47.1672 38.9753 46.4982 39.0394C45.7939 39.1069 44.846 39.1215 44.2467 39.0741L43.2116 38.9921L43.9198 38.9089C44.3094 38.8632 45.0203 38.7678 45.4998 38.6971C45.9792 38.6262 46.8451 38.4289 47.424 38.2582C48.0029 38.0876 48.9171 37.757 49.4555 37.5234C49.9938 37.2899 50.8931 36.8285 51.4538 36.4979C52.0145 36.1674 52.8579 35.6016 53.3279 35.2406C53.798 34.8796 54.5442 34.2592 54.9862 33.862C55.4281 33.4649 56.1806 32.6714 56.6585 32.0988C57.1363 31.5262 57.7917 30.6577 58.1149 30.1689C58.4381 29.6801 58.8936 28.9278 59.1272 28.4973C59.3608 28.0668 59.5248 27.6873 59.4917 27.6541C59.4586 27.621 58.8711 27.6437 58.186 27.7045C57.5011 27.7653 56.2663 27.9364 55.4421 28.0846C54.6179 28.233 52.9263 28.6249 51.6829 28.9555C50.4396 29.2863 48.8873 29.6539 48.2335 29.7724C47.5797 29.891 46.3539 30.0433 45.5094 30.1108C44.6259 30.1816 43.2653 30.204 42.3038 30.1638C41.3851 30.1253 40.1102 30.017 39.4709 29.9231C38.8315 29.829 37.9147 29.6612 37.4335 29.55C36.9523 29.4389 35.6427 29.1027 34.5233 28.8032C33.4038 28.5036 31.8852 28.1584 31.1487 28.036C30.4121 27.9137 29.3191 27.7712 28.7198 27.7192C28.1205 27.6671 27.6071 27.6442 27.5789 27.6682C27.5506 27.6922 27.6431 28.0402 27.7844 28.4415C27.9257 28.8428 28.3314 29.7447 28.6857 30.4454C29.0401 31.1463 29.6332 32.1517 30.0039 32.6796C30.3746 33.2076 31.316 34.2765 32.096 35.055C33.4011 36.3578 33.459 36.4318 32.8219 35.9849C32.4412 35.7179 31.7481 35.1691 31.2817 34.7653C30.8152 34.3614 30.1044 33.6488 29.7021 33.1813C29.2997 32.714 28.6436 31.8387 28.2439 31.236C27.8442 30.6334 27.2484 29.567 26.9199 28.8663L26.3227 27.5922L25.7506 27.5916C25.1817 27.5909 25.1786 27.5891 25.1786 27.2473V26.9036L26.9492 26.9789C27.9231 27.0203 29.4308 27.1537 30.2998 27.2752Z" fill="white"/>
<path fill-rule="evenodd" clip-rule="evenodd" d="M62.8975 11.8311C63.1794 11.8793 63.4811 12.0255 63.7145 12.2271C64.0757 12.5389 64.2933 12.9431 64.3627 13.4306C64.3973 13.6741 64.3973 13.7398 64.3627 13.9833C64.1748 15.3044 62.8189 16.013 61.7121 15.3684C61.2366 15.0915 60.8951 14.5666 60.8094 13.9809C60.7574 13.6263 60.8228 13.2053 60.9843 12.855C61.2215 12.3403 61.7431 11.925 62.269 11.8323C62.4141 11.8067 62.7511 11.8061 62.8975 11.8311ZM81.7388 12.3197C81.8885 12.444 82.0223 12.5567 82.0361 12.5702C82.0567 12.5904 82.0526 12.6646 82.0127 12.9885C81.8947 13.9461 81.7149 15.8437 81.7144 16.137L81.7143 16.2131H82.7671H83.8199V17.1436V18.074L83.6333 18.0162C83.381 17.9382 83.0697 17.8698 82.6905 17.8091C82.3512 17.7548 81.6435 17.6816 81.627 17.699C81.6136 17.7133 81.5665 18.8536 81.5426 19.7441C81.5077 21.0433 81.5173 22.1479 81.5795 24.0157C81.595 24.482 81.6027 24.565 81.6455 24.73C81.8872 25.6619 82.5905 26.1189 83.7051 26.0683C83.8577 26.0614 84.0236 26.0498 84.0736 26.0426L84.1645 26.0295V26.662V27.2944L82.1785 27.2876C80.3509 27.2813 80.181 27.2778 80.0489 27.2444C79.4752 27.0995 79.0759 26.833 78.7553 26.3813C78.5284 26.0616 78.3747 25.661 78.2733 25.1249L78.2209 24.8477L78.2274 20.5558C78.2341 16.2094 78.2258 15.4309 78.163 14.539C78.1473 14.3157 78.1298 14.1011 78.1242 14.0621L78.1141 13.9911L78.378 13.9026C79.6393 13.48 80.7244 12.8724 81.2645 12.2862C81.3592 12.1833 81.4434 12.0979 81.4516 12.0964C81.4598 12.0949 81.589 12.1954 81.7388 12.3197ZM51.4122 12.6013C52.4478 12.662 54.2441 12.6475 54.864 12.5734C54.9779 12.5598 55.0739 12.5536 55.0772 12.5596C55.0805 12.5656 55.0671 12.6984 55.0474 12.8547C54.798 14.8347 54.6111 17.4015 54.509 20.2514C54.4809 21.0343 54.4784 24.8858 54.5058 25.1622L54.5228 25.3347L55.5757 25.3312C56.7087 25.3274 57.5433 25.2925 58.1798 25.2225C58.5664 25.18 58.9844 25.1067 59.1553 25.0515C59.2079 25.0345 59.2617 25.0205 59.2749 25.0204C59.2937 25.0202 59.2988 25.2588 59.2988 26.1464V27.2727L59.227 27.2726C59.1876 27.2726 59.039 27.2636 58.8968 27.2527C58.1308 27.1941 56.103 27.1308 54.9918 27.1308C53.744 27.1309 51.8914 27.1859 50.8133 27.2549C50.6155 27.2675 50.4491 27.273 50.4434 27.267C50.4378 27.2611 50.4552 27.0522 50.482 26.8028C50.6725 25.0308 50.8146 22.8016 50.8763 20.6166C50.9003 19.7678 50.9003 17.5357 50.8763 16.7509C50.8361 15.4321 50.7482 13.9534 50.6491 12.9257C50.6303 12.7304 50.617 12.5657 50.6197 12.5597C50.6223 12.5538 50.7135 12.5555 50.8222 12.5636C50.9309 12.5717 51.1964 12.5886 51.4122 12.6013ZM90.5101 15.9705C92.1598 16.1113 93.3466 16.609 94.206 17.5204C94.8838 18.2391 95.3134 19.1836 95.4851 20.3326C95.5699 20.9005 95.6035 21.6061 95.5733 22.1846C95.4596 24.3629 94.6521 25.8494 93.1458 26.6533C92.4224 27.0394 91.6486 27.2486 90.5867 27.3453C90.1195 27.3878 88.9742 27.3765 88.548 27.3251C87.0633 27.1459 86.0107 26.6942 85.2128 25.8937C84.8629 25.5426 84.6076 25.1682 84.3752 24.6651C84.1019 24.0737 83.9356 23.4485 83.8596 22.7271C83.6226 20.4767 84.0911 18.6443 85.196 17.5006C85.8287 16.8457 86.602 16.4221 87.6388 16.1625C88.0486 16.0599 88.7328 15.9692 89.3042 15.9416C89.5294 15.9308 90.2456 15.9479 90.5101 15.9705ZM103.9 15.9894C104.414 16.0584 104.783 16.1724 105.192 16.3891C105.769 16.6954 106.248 17.2767 106.501 17.9782C106.606 18.2694 106.709 18.7356 106.753 19.1181C106.765 19.2167 106.78 20.3001 106.79 21.7125C106.805 23.8733 106.821 24.8121 106.858 25.5377C106.881 25.9853 106.946 26.7656 106.981 27.0106C107.001 27.1488 107.015 27.265 107.011 27.2688C107.008 27.2726 106.847 27.2661 106.653 27.2544C105.817 27.2035 104.268 27.2089 103.427 27.2655C103.242 27.278 103.233 27.2767 103.241 27.2402C103.258 27.1633 103.346 26.1716 103.392 25.5275C103.504 23.987 103.542 22.8662 103.532 21.3269C103.525 20.1735 103.522 20.1092 103.481 19.8894C103.436 19.6461 103.335 19.3146 103.257 19.1509C102.918 18.4435 102.314 18.1183 101.483 18.1967C100.622 18.278 100.166 18.7848 99.9632 19.8861L99.9129 20.1601L99.9251 21.7023C99.9446 24.1579 100.002 25.5466 100.136 26.8618L100.179 27.2727L100.139 27.2725C100.118 27.2724 100.027 27.2634 99.9376 27.2525C98.9955 27.1371 97.3862 27.1329 96.5782 27.2435C96.4624 27.2594 96.3586 27.2724 96.3475 27.2725C96.3341 27.2726 96.3415 27.125 96.3695 26.8313C96.6 24.414 96.6631 21.6002 96.5392 19.2672C96.4902 18.3451 96.3637 16.9478 96.2821 16.4274C96.2717 16.3611 96.2652 16.3048 96.2676 16.3023C96.27 16.2997 96.3797 16.3099 96.5112 16.325C96.9938 16.3803 97.5129 16.4052 98.1766 16.4048C98.875 16.4044 99.1643 16.3858 99.5887 16.3138C99.7179 16.2919 99.8281 16.274 99.8335 16.274C99.8389 16.274 99.8374 16.5405 99.83 16.8663L99.8166 17.4587L99.9776 17.3076C100.355 16.9539 100.675 16.7235 101.118 16.4884C101.688 16.1856 102.251 16.0206 102.914 15.9621C103.074 15.9481 103.727 15.9662 103.9 15.9894ZM73.4021 16.1508C74.5319 16.3322 75.3794 16.8107 75.9853 17.6092C76.5644 18.3724 76.8988 19.3712 77.0168 20.6903C77.0627 21.2032 77.0633 22.2636 77.018 22.7575C76.8693 24.3775 76.4522 25.4812 75.6976 26.2517C75.4289 26.526 75.1484 26.7331 74.7964 26.917C74.3011 27.1759 73.8099 27.3184 73.1537 27.3935C72.8744 27.4254 72.0428 27.4202 71.7603 27.3847C70.6168 27.241 69.7984 26.7767 69.2232 25.9453L69.1283 25.8081L69.1227 25.9615C69.1162 26.1407 69.1981 27.7165 69.2537 28.4801C69.3198 29.3893 69.4502 30.8336 69.5019 31.229C69.5113 31.3011 69.5161 31.3632 69.5125 31.367C69.5089 31.3708 69.4383 31.3557 69.3555 31.3334C69.1411 31.2757 68.692 31.1966 68.3395 31.1544C68.1055 31.1264 67.8838 31.1182 67.3577 31.1182C66.688 31.1182 66.5012 31.1296 65.9837 31.2023C65.8544 31.2205 65.7458 31.2318 65.7425 31.2275C65.7391 31.2232 65.7475 31.078 65.7612 30.9049C65.7748 30.7317 65.8078 30.2112 65.8345 29.7482C66.0702 25.662 66.1026 21.0286 65.9215 17.2901C65.9007 16.8612 65.8837 16.4859 65.8837 16.4561C65.8837 16.4022 65.8843 16.402 65.9842 16.4181C66.3869 16.4829 67.596 16.517 68.1521 16.4792C68.4815 16.4568 69.0428 16.3828 69.2409 16.3355C69.2923 16.3232 69.3364 16.3158 69.3388 16.319C69.3412 16.3221 69.336 16.3932 69.3272 16.4769C69.2962 16.7701 69.2145 17.8434 69.2225 17.8518C69.2269 17.8565 69.241 17.839 69.254 17.8129C69.305 17.7098 69.5399 17.4104 69.7216 17.217C70.2648 16.6388 70.9123 16.289 71.7125 16.1415C72.1142 16.0674 72.9103 16.0718 73.4021 16.1508ZM60.8685 16.7714C61.4863 16.8877 62.0892 16.9308 62.911 16.9174C63.4742 16.9082 63.6333 16.8986 63.9408 16.8552C64.1408 16.827 64.3332 16.7976 64.3683 16.7898L64.4321 16.7756L64.4212 16.8647C64.3359 17.5635 64.2235 19.2878 64.1806 20.5558C64.1557 21.2887 64.1556 23.0279 64.1803 23.691C64.2275 24.9546 64.3459 26.2953 64.4793 27.0759C64.4961 27.1742 64.5054 27.2593 64.5 27.265C64.4945 27.2708 64.4397 27.2655 64.3782 27.2533C64.1387 27.206 63.5957 27.1495 63.1751 27.1283C62.4024 27.0893 61.6267 27.133 60.7459 27.265L60.652 27.2791L60.6644 27.149C60.9419 24.2371 61.0007 20.6688 60.8113 18.2424C60.7763 17.7941 60.6939 16.9751 60.6668 16.8067C60.6543 16.729 60.6485 16.73 60.8685 16.7714ZM89.5243 17.237C89.5085 17.2411 89.4181 17.2555 89.3233 17.269C88.1998 17.4286 87.6402 18.3893 87.4915 20.4137C87.4591 20.8543 87.4592 22.5204 87.4916 22.9706C87.5602 23.9248 87.7184 24.661 87.9692 25.1927C88.112 25.4954 88.4006 25.8468 88.6399 26.0092C88.7986 26.1169 89.0152 26.2082 89.2304 26.258C89.4912 26.3183 89.9175 26.3194 90.1712 26.2603C91.2298 26.0138 91.7558 25.0399 91.9209 23.0213C91.9531 22.6274 91.9527 20.8715 91.9203 20.434C91.8684 19.7331 91.7833 19.2202 91.6461 18.7825C91.3677 17.894 90.8973 17.419 90.1555 17.2777C90.0004 17.2482 89.5846 17.2214 89.5243 17.237ZM71.2914 17.8444C70.4665 18.0122 69.7512 18.9581 69.425 20.3123C69.2305 21.1199 69.1966 22.0746 69.3314 22.9503C69.5104 24.1136 69.9897 25.0936 70.6216 25.5885C70.8943 25.8021 71.1723 25.9113 71.4848 25.9276C71.7323 25.9406 71.8911 25.9104 72.1352 25.8041C72.7717 25.5266 73.3277 24.7394 73.6248 23.6951C73.8033 23.0677 73.8564 22.6524 73.8564 21.8849C73.8564 21.2391 73.8357 21.0101 73.7301 20.4926C73.5213 19.4687 73.0489 18.5821 72.4847 18.1553C72.3345 18.0416 72.0807 17.9116 71.9215 17.8668C71.7629 17.8221 71.4548 17.8111 71.2914 17.8444Z" fill="white"/>
</svg>
