<svg width="54" height="32" viewBox="0 0 54 32" fill="none" xmlns="http://www.w3.org/2000/svg">
<path fill-rule="evenodd" clip-rule="evenodd" d="M20.5546 0.294281C19.7491 0.540467 19.845 0.437251 16.7968 4.34138C14.3065 7.53092 14.4089 7.36909 14.7412 7.59039C15.9017 8.36327 18.2997 8.01838 19.9023 6.8481C20.4269 6.46504 20.4665 6.41919 22.5099 3.83408C24.3992 1.44393 25.1929 0.564895 25.6491 0.357088L25.993 0.200562L23.4149 0.204295C21.479 0.207111 20.7665 0.229509 20.5546 0.294281ZM26.3911 0.319299C25.8146 0.529071 24.4659 1.72215 24.4776 2.01201C24.48 2.07305 24.7182 2.38283 26.356 4.45429C27.9084 6.41755 27.9304 6.44244 28.4706 6.84463C30.1374 8.08551 33.2581 8.41068 33.8909 7.40944C33.9109 7.37761 33.5959 6.92852 33.1908 6.41146C32.7856 5.8944 32.2586 5.22088 32.0196 4.9147C29.7599 2.01974 28.9935 1.05183 28.8143 0.866684C28.2672 0.301616 27.1397 0.046851 26.3911 0.319299ZM11.3949 9.04321C6.03902 9.57566 1.5759 13.2647 0.51975 18.0321C0.383412 18.6478 0.379395 18.8251 0.379395 24.2687V29.8716L0.54908 30.1992C1.389 31.8202 3.7188 31.7907 4.56917 30.1482L4.76551 29.769L4.80207 24.5624C4.83803 19.4526 4.84138 19.3474 4.98401 18.9052C5.4486 17.4647 6.39855 16.2123 7.82186 15.1637C8.43585 14.7113 8.82638 14.5036 10.6953 13.6357C12.4595 12.8164 14.7766 10.3267 14.7766 9.25036C14.7766 9.0415 12.695 8.91392 11.3949 9.04321ZM50.9034 9.06783C49.7006 9.33963 48.5918 10.0966 48.0349 11.0259C47.8919 11.2646 46.1232 16.9268 44.5888 22.0578C44.4568 22.4994 44.3271 22.8383 44.3007 22.811C44.2569 22.7656 43.3613 19.8536 41.516 13.7562C40.4698 10.2995 39.8771 9.57848 37.7236 9.14348C36.9229 8.98171 35.1335 9.06462 35.1335 9.26352C35.1335 9.52117 42.2113 30.0719 42.4001 30.3624C43.3144 31.7693 45.4336 31.7344 46.2807 30.2985C46.4971 29.9317 53.4146 9.66827 53.4146 9.40125C53.4146 9.04766 51.8891 8.84516 50.9034 9.06783ZM22.6113 9.13928C12.8913 10.439 9.24825 22.342 16.6361 28.662C22.6027 33.7662 32.1359 31.4074 34.8562 24.1538L34.9972 23.7779L34.7381 23.6487C33.4569 23.0094 30.4884 23.7878 28.8376 25.1959C26.4235 27.2551 23.2461 27.5556 20.5161 25.9829C19.3748 25.3254 17.656 23.2328 17.656 22.5008C17.656 22.4122 18.5412 22.4012 25.6839 22.4012C34.6263 22.4012 34.056 22.4297 34.7072 21.9493C35.6201 21.2759 35.8053 20.0192 35.3297 17.7255C34.17 12.1327 28.5579 8.34408 22.6113 9.13928ZM25.541 13.5932C27.9741 14.0447 30.2158 15.8923 30.6849 17.8331L30.7284 18.0132H24.1922C18.4832 18.0132 17.656 18.001 17.656 17.9168C17.656 17.5219 18.5479 16.154 19.2606 15.4557C20.873 13.876 23.256 13.1693 25.541 13.5932ZM48.7271 29.1141C48.7271 29.1869 48.8052 29.2124 49.0284 29.2124H49.3298V30.031C49.3298 31.2821 49.583 31.2968 49.6123 30.0474L49.6311 29.2451L49.9492 29.2251C50.6761 29.1796 50.3226 29.0159 49.4972 29.0159C48.8573 29.0159 48.7271 29.0325 48.7271 29.1141ZM50.4682 29.9328C50.4682 30.806 50.4745 30.8497 50.6021 30.8497C50.7274 30.8497 50.7364 30.8041 50.7418 30.1456L50.7477 29.4416L50.9907 30.1456C51.3256 31.1161 51.4336 31.1207 51.7631 30.1784L51.9977 29.5071L52.003 30.1784C52.008 30.8043 52.0174 30.8497 52.1422 30.8497C52.2698 30.8497 52.2762 30.806 52.2762 29.9328V29.0159H52.0895C51.9119 29.0159 51.8921 29.0484 51.6802 29.6872C51.3868 30.5718 51.3994 30.5707 51.1081 29.7385C50.8644 29.0425 50.848 29.0159 50.6617 29.0159H50.4682V29.9328Z" fill="white"/>
</svg>
