<svg width="152" height="33" viewBox="0 0 152 33" fill="none" xmlns="http://www.w3.org/2000/svg">
<path fill-rule="evenodd" clip-rule="evenodd" d="M35.5162 1.16266C34.9417 1.2925 34.0955 1.52192 33.6357 1.67252C33.1758 1.82312 32.2845 2.20331 31.6549 2.51743C31.0254 2.83139 30.1792 3.31312 29.7745 3.58767C29.3697 3.86223 28.497 4.60673 27.8353 5.24218C27.1733 5.87762 26.3077 6.84991 25.9114 7.40277C25.5151 7.9558 24.8628 9.10077 24.4618 9.94732C24.0609 10.7937 23.5893 12.1073 23.4138 12.8663C23.2384 13.6254 23.0439 14.7175 22.9818 15.2935L22.8687 16.3405L23.6661 16.246C24.1049 16.1941 25.0127 15.8885 25.6837 15.5669C26.4367 15.2061 27.1468 14.9823 27.539 14.9823C28.0799 14.9823 28.1567 15.0248 28.0565 15.2684C27.9916 15.4259 27.9039 15.6745 27.8614 15.8211C27.8137 15.9865 27.5434 16.1199 27.1496 16.1727C26.8007 16.2195 26.0266 16.4958 25.4294 16.7867C24.8322 17.0776 24.0144 17.3527 23.612 17.3981C22.9635 17.4712 22.8909 17.5198 22.973 17.8257C23.024 18.0156 23.0667 18.2996 23.0678 18.4571C23.0695 18.6572 23.2006 18.7433 23.5047 18.7433C23.7438 18.7433 24.5902 18.4435 25.3854 18.0772C26.1806 17.7109 26.9289 17.4349 27.0482 17.464C27.21 17.5034 27.2294 17.6521 27.1251 18.0483C27.0255 18.427 26.89 18.5797 26.6538 18.5797C26.4715 18.5797 25.837 18.8373 25.244 19.1521C24.6509 19.4668 23.9508 19.7244 23.6885 19.7244C23.2897 19.7244 23.2268 19.7778 23.3044 20.0514C23.3555 20.2313 23.4388 20.5256 23.4899 20.7055C23.5522 20.9246 23.7227 21.0325 24.0071 21.0325C24.2404 21.0325 24.7573 20.8416 25.1558 20.608C25.5542 20.3745 26.0941 20.1221 26.3556 20.047C26.8034 19.9186 26.8311 19.9386 26.8311 20.3899C26.8311 20.7369 26.7523 20.8692 26.5449 20.8697C26.3876 20.8702 25.9299 21.0885 25.5282 21.3552C25.1262 21.6217 24.5928 21.8848 24.3426 21.9398C24.0924 21.9947 23.8877 22.0681 23.8877 22.103C23.8877 22.1376 24.0117 22.4261 24.1632 22.744C24.3148 23.0618 24.5107 23.3218 24.5987 23.3218C24.6865 23.3218 25.096 23.1089 25.5085 22.8488C25.9213 22.5886 26.4154 22.3289 26.6067 22.2717C26.887 22.188 26.9701 22.2483 27.0337 22.5812C27.0906 22.8787 27.0422 22.9948 26.8613 22.9948C26.723 22.9948 26.2213 23.2623 25.7466 23.5894C24.8903 24.179 24.8852 24.1875 25.1202 24.6418C25.2505 24.8938 25.4318 25.1461 25.5232 25.2026C25.6148 25.2591 25.9631 25.0798 26.2975 24.8041C26.6319 24.5285 27.0451 24.303 27.2158 24.303C27.4687 24.303 27.509 24.2179 27.4341 23.8436C27.3483 23.4144 27.3903 23.3714 28.0701 23.1895C28.4704 23.0824 29.0535 22.8293 29.3658 22.6269C29.7409 22.3839 29.9345 22.1312 29.936 21.8829C29.937 21.6762 30.0575 21.2714 30.2037 20.9835C30.3497 20.6957 30.7062 20.1659 30.9958 19.8061C31.2854 19.4464 31.6074 18.9913 31.7114 18.7949C31.8152 18.5984 31.9002 18.187 31.9002 17.8807C31.9002 17.5742 31.7907 16.9624 31.6567 16.5208C31.5228 16.0793 31.4124 15.3082 31.4115 14.807C31.4105 14.306 31.5222 13.5701 31.6597 13.1718C31.7972 12.7736 32.0552 12.2638 32.233 12.0389C32.5558 11.6308 32.5558 11.6313 32.2418 12.366C32.0688 12.7707 31.8785 13.4354 31.8188 13.8432C31.7395 14.3848 31.8261 15.0564 32.1403 16.3359L32.5705 18.0872L32.2408 18.7832C32.0595 19.166 31.6126 19.8838 31.2478 20.3785C30.883 20.8731 30.5409 21.547 30.4876 21.8758C30.4156 22.3204 30.498 22.7083 30.8089 23.3874L31.227 24.3008L30.6647 24.7299C30.3553 24.9659 29.8261 25.2574 29.4886 25.3778C29.1511 25.4983 28.708 25.6 28.5037 25.6039C28.2614 25.6087 28.0671 25.468 27.945 25.2C27.8026 24.8874 27.6758 24.8133 27.417 24.891C27.2296 24.9472 26.8404 25.2172 26.5518 25.4909L26.0274 25.9889L26.3585 26.4541C26.5408 26.71 26.7953 26.9193 26.924 26.9193C27.0528 26.9193 27.1581 26.8508 27.1581 26.7669C27.1581 26.6832 27.3792 26.4572 27.6493 26.2647C28.0729 25.9632 28.154 25.9499 28.2379 26.1682C28.2979 26.3249 28.1366 26.62 27.8158 26.9409L27.2965 27.4602L27.796 27.9596L28.2954 28.4592L28.7716 28.0029C29.1094 27.6793 29.2697 27.61 29.3231 27.7645C29.3647 27.8842 29.2566 28.165 29.0831 28.3885L28.7675 28.7949L29.2736 29.247C29.5519 29.4957 29.852 29.6991 29.9406 29.6991C30.0291 29.6991 30.1015 29.5956 30.1015 29.4692C30.1015 29.3427 30.4786 28.6811 30.9395 27.9989C31.4003 27.3166 31.84 26.5187 31.9164 26.2256C32.0355 25.7686 32.0476 25.8091 32.0011 26.5105C31.9629 27.0903 31.7768 27.6133 31.3611 28.3092C31.0388 28.8488 30.7273 29.4874 30.6689 29.7282C30.5788 30.0988 30.637 30.2046 31.0471 30.4167C31.3137 30.5545 31.5778 30.6211 31.6342 30.5647C31.6906 30.5084 31.7367 30.3323 31.7367 30.1737C31.7367 30.0149 32.0678 29.2047 32.4725 28.3731C32.8773 27.5416 33.2084 26.6335 33.2084 26.3548C33.2084 26.0559 32.9105 25.3256 32.4807 24.5718C32.0806 23.8695 31.6702 23.0432 31.5686 22.7354C31.4671 22.4279 31.4322 21.9558 31.4914 21.6865C31.5506 21.4173 31.9331 20.7431 32.3417 20.1881C32.7502 19.6333 33.1871 18.9334 33.3127 18.6329C33.4383 18.3323 33.4965 17.8846 33.4421 17.6382C33.3876 17.3916 33.1894 16.7115 33.0015 16.1269C32.8092 15.5284 32.6609 14.6355 32.6622 14.0829C32.6635 13.4279 32.7868 12.8204 33.0333 12.2549C33.2362 11.7892 33.5506 11.2741 33.7321 11.1103C34.0351 10.837 34.0307 10.873 33.6793 11.5483C33.4205 12.0455 33.2758 12.6459 33.2332 13.3991C33.1822 14.303 33.2568 14.7671 33.6273 15.8519C33.8788 16.5877 34.0855 17.5327 34.0867 17.9518C34.0883 18.5328 33.9746 18.877 33.6077 19.4009C33.3431 19.7787 32.919 20.3924 32.665 20.7647C32.2744 21.3372 32.2132 21.5689 32.2672 22.2706C32.3159 22.9035 32.5093 23.3872 33.0844 24.3146C33.4988 24.9827 33.8881 25.8041 33.9496 26.1396C34.0451 26.6616 33.9405 27.0056 33.226 28.5172C32.7667 29.489 32.3908 30.4752 32.3908 30.7086C32.3908 30.9721 32.499 31.1638 32.6769 31.215C32.8344 31.2603 33.0818 31.3464 33.2269 31.4065C33.4358 31.493 33.5125 31.38 33.5951 30.8634C33.6525 30.5046 34.0358 29.5256 34.4469 28.6879C35.0776 27.4025 35.184 27.0486 35.1281 26.4219C35.081 25.8955 34.8186 25.2766 34.2265 24.2961C33.7671 23.5354 33.3788 22.7291 33.3634 22.5042C33.3482 22.2794 33.3438 21.9396 33.3538 21.7491C33.3637 21.5588 33.7766 20.7948 34.2713 20.0514C35.0467 18.8863 35.1706 18.5925 35.1706 17.9204C35.1706 17.416 34.9621 16.6015 34.5797 15.6118C34.0739 14.3033 34.0008 13.949 34.0726 13.1543C34.1243 12.5815 34.3285 11.9096 34.6058 11.4C34.8529 10.9459 35.2011 10.4441 35.3795 10.2847C35.6447 10.0476 35.62 10.1581 35.2427 10.8943C34.8595 11.642 34.7813 12.0003 34.7787 13.02C34.7761 14.0741 34.8609 14.4463 35.3819 15.6679C35.8345 16.7292 35.9882 17.3165 35.9882 17.9855C35.9882 18.7915 35.9063 19.0016 35.1716 20.0795C34.7226 20.7387 34.3118 21.5051 34.259 21.7828C34.2013 22.0869 34.2691 22.5423 34.4297 22.9274C34.5764 23.2793 34.9983 24.0309 35.3672 24.5978C35.847 25.3349 36.0595 25.8543 36.1142 26.4214C36.1794 27.1005 36.0896 27.4329 35.4898 28.7352C35.1044 29.5716 34.7563 30.5995 34.7159 31.0192C34.6755 31.439 34.7062 31.8202 34.7839 31.8661C34.8617 31.9122 35.1461 31.9971 35.4159 32.0548C35.9058 32.1595 35.9065 32.1587 35.9302 31.3644C35.9436 30.9175 36.1473 30.1104 36.3959 29.5211C36.6389 28.9445 36.9888 28.0845 37.1734 27.6102C37.4593 26.8758 37.4815 26.6549 37.3229 26.1259C37.2205 25.784 36.8305 25.0316 36.4564 24.4539C36.0823 23.8762 35.6708 23.1526 35.542 22.8457C35.4009 22.5098 35.3482 22.072 35.4094 21.7457C35.4653 21.4476 35.7801 20.8523 36.1088 20.4231C36.4374 19.9939 36.7951 19.3864 36.9033 19.0732L37.1003 18.504L38.6687 18.494L40.2368 18.4842L40.4018 18.9817C40.4926 19.2552 40.8612 19.9121 41.2209 20.4414C41.7265 21.1853 41.875 21.5591 41.875 22.0879C41.875 22.6043 41.7133 23.0296 41.2148 23.8237C40.8518 24.4021 40.402 25.1989 40.2154 25.5943C39.9839 26.0852 39.9021 26.5069 39.9579 26.9232C40.003 27.2586 40.3194 28.1493 40.6612 28.9023C41.075 29.8144 41.3063 30.5882 41.3537 31.2202L41.425 32.169L41.9361 32.0596C42.2172 31.9992 42.5116 31.9119 42.5901 31.8653C42.6687 31.8189 42.6913 31.4293 42.6404 30.9998C42.5896 30.5704 42.2933 29.7134 41.9821 29.0954C41.6709 28.4773 41.337 27.6774 41.2402 27.3178C41.1228 26.882 41.1164 26.4737 41.2211 26.0948C41.3076 25.7818 41.7474 24.941 42.1989 24.2261C42.8833 23.1425 43.0196 22.7987 43.0196 22.1584C43.0196 21.5023 42.8947 21.2052 42.1639 20.1235C41.3777 18.9598 41.3089 18.7825 41.3182 17.9415C41.3259 17.2562 41.4876 16.6566 41.9623 15.5546C42.4993 14.3079 42.5945 13.9143 42.5842 12.9806C42.5752 12.1506 42.4708 11.6736 42.1621 11.0499L41.7522 10.2214L42.1392 10.585C42.352 10.785 42.6878 11.2825 42.8854 11.6904C43.1362 12.2086 43.2432 12.7304 43.2404 13.4211C43.2373 14.1557 43.0988 14.7463 42.7014 15.7181C42.3583 16.5573 42.1602 17.3267 42.1489 17.8642C42.1351 18.5223 42.2248 18.8383 42.5667 19.3359C42.8061 19.6845 43.2268 20.2934 43.5014 20.6891C43.8493 21.1905 44.0007 21.6018 44.0007 22.0447C44.0007 22.3945 43.8604 22.9537 43.6889 23.2875C43.5174 23.6211 43.1127 24.3314 42.7896 24.8656C42.3552 25.584 42.202 26.0217 42.202 26.5453C42.202 27.046 42.3942 27.6357 42.8577 28.5578C43.2185 29.2751 43.5936 30.2352 43.6914 30.6912C43.8358 31.3649 43.92 31.4997 44.1394 31.4089C44.2879 31.3474 44.5382 31.2603 44.6957 31.215C44.8533 31.1697 44.9819 30.9757 44.9819 30.7833C44.9819 30.5911 44.614 29.6617 44.1643 28.718C43.6583 27.6563 43.3478 26.7837 43.3496 26.4292C43.3512 26.1063 43.5547 25.4999 43.8161 25.0388C44.0711 24.5891 44.4835 23.8668 44.7325 23.4337C45.0994 22.7956 45.1699 22.5085 45.1039 21.9218C45.0465 21.4129 44.829 20.9416 44.3728 20.3373C44.0156 19.8642 43.6018 19.2422 43.4533 18.9549C43.3046 18.6675 43.1831 18.2079 43.1831 17.9332C43.1831 17.6586 43.4135 16.7292 43.695 15.8676C44.1219 14.5609 44.1931 14.1287 44.1234 13.2619C44.0675 12.5653 43.8989 11.9702 43.6122 11.4573C43.3674 11.0194 43.293 10.7819 43.4384 10.9026C43.5782 11.0185 43.8838 11.4398 44.1177 11.8388C44.4338 12.3784 44.562 12.8639 44.6179 13.7353C44.6789 14.6875 44.613 15.16 44.2652 16.261C44.0297 17.006 43.8374 17.7773 43.8376 17.975C43.8376 18.1727 43.9664 18.5709 44.1237 18.8598C44.2809 19.1488 44.7222 19.8379 45.1045 20.3911C45.6786 21.2219 45.7995 21.5293 45.7995 22.1584C45.7995 22.7691 45.6492 23.1766 45.0398 24.2178C44.5953 24.977 44.2495 25.79 44.2065 26.1766C44.1463 26.7177 44.2693 27.1173 44.8844 28.379C45.2978 29.2271 45.636 30.0916 45.636 30.3004C45.636 30.5094 45.6798 30.6803 45.7334 30.6803C45.7869 30.6803 46.0444 30.554 46.3056 30.3998C46.6665 30.1866 46.7554 30.0396 46.6763 29.7866C46.619 29.6036 46.2511 28.8436 45.8588 28.0978C45.4664 27.352 45.1454 26.5978 45.1454 26.4217C45.1454 26.2457 45.2007 26.1035 45.268 26.1056C45.3354 26.1077 45.5576 26.4572 45.7617 26.8823C45.9658 27.3073 46.3865 28.0525 46.6966 28.5381C47.0066 29.0238 47.2872 29.5018 47.3201 29.6005C47.3544 29.7036 47.6361 29.5843 47.983 29.3198L48.586 28.8598L48.2453 28.3812C48.0579 28.1181 47.954 27.8226 48.0145 27.7246C48.0845 27.6115 48.2984 27.713 48.6009 28.0028L49.0772 28.4592L49.5752 27.9612L50.0731 27.4632L49.4825 26.9445C49.0339 26.5507 48.9273 26.3622 49.0396 26.1617C49.1669 25.9342 49.2781 25.9794 49.8376 26.4848L50.4878 27.0723L50.8657 26.5613C51.1448 26.1838 51.2012 25.9823 51.0815 25.7899C50.9926 25.6466 50.6766 25.3637 50.3794 25.1614C50.0822 24.959 49.7748 24.7935 49.6963 24.7935C49.6177 24.7935 49.4697 24.9775 49.3672 25.2023C49.2447 25.4711 49.0481 25.6111 48.793 25.6111C48.5798 25.6111 48.1357 25.4985 47.8062 25.3608C47.4765 25.2231 46.9639 24.925 46.6668 24.6985C46.153 24.3066 46.1378 24.2649 46.3548 23.8449C46.4802 23.6023 46.6671 23.09 46.7703 22.7067C46.9315 22.1075 46.9135 21.9128 46.6431 21.3167C46.4699 20.9356 46.0264 20.2256 45.6575 19.7391C45.2886 19.2525 44.9423 18.6167 44.8878 18.3261C44.8273 18.004 44.922 17.3121 45.1305 16.5518C45.3186 15.8664 45.4718 14.8466 45.4708 14.2855C45.4697 13.55 45.3554 13.0143 45.0615 12.366C44.8372 11.8713 44.7701 11.6138 44.9124 11.7936C45.0546 11.9735 45.3187 12.406 45.4993 12.7548C45.6798 13.1034 45.867 13.7717 45.9152 14.2399C45.9741 14.8106 45.8883 15.5801 45.6546 16.5756C45.4124 17.6071 45.3509 18.1786 45.4535 18.4479C45.5346 18.6613 45.8736 19.1929 46.2068 19.6295C46.5401 20.0661 46.9525 20.6524 47.123 20.9323C47.2937 21.2123 47.4337 21.6407 47.434 21.8842C47.4345 22.2325 47.583 22.413 48.1296 22.7304C48.512 22.9524 49.0959 23.1835 49.4275 23.2442C49.9854 23.3462 50.0193 23.3841 49.8795 23.7517C49.7493 24.094 49.7863 24.1712 50.1462 24.308C50.3759 24.3953 50.8248 24.6658 51.1437 24.909C51.7121 25.3426 51.7279 25.3451 51.9621 25.0314C52.0934 24.8557 52.2698 24.586 52.3544 24.4325C52.4724 24.2178 52.4224 24.108 52.138 23.9584C51.9344 23.8515 51.56 23.5908 51.3057 23.3792C51.0516 23.1678 50.6941 22.9948 50.5115 22.9948C50.276 22.9948 50.2083 22.9197 50.2788 22.7361C50.3334 22.5938 50.3781 22.405 50.3781 22.3163C50.3781 22.2264 50.5406 22.2025 50.746 22.2625C50.9484 22.3216 51.4203 22.584 51.7946 22.8458C52.1691 23.1076 52.5812 23.3218 52.7102 23.3218C52.8392 23.3218 53.0604 23.0275 53.2017 22.6678C53.4411 22.0583 53.4395 22.0137 53.1767 22.0137C53.0217 22.0137 52.5488 21.7942 52.1258 21.5259C51.7027 21.2577 51.1733 20.9922 50.9491 20.9359C50.6353 20.8571 50.5416 20.7276 50.5416 20.3721C50.5416 19.9404 50.5722 19.9195 51.0171 20.047C51.2786 20.1221 51.8185 20.3745 52.2168 20.608C52.6153 20.8416 53.1283 21.0325 53.3567 21.0325C53.7047 21.0325 53.7992 20.9264 53.9382 20.3785C54.1026 19.7311 54.0995 19.7244 53.6447 19.7244C53.3919 19.7244 52.6996 19.4668 52.1063 19.1521C51.5129 18.8373 50.8856 18.5797 50.7125 18.5797C50.5391 18.5797 50.3664 18.5245 50.3285 18.4571C50.2907 18.3897 50.2114 18.132 50.1522 17.8848C50.0675 17.5303 50.1028 17.4351 50.319 17.4351C50.47 17.4351 51.2436 17.7347 52.0383 18.1006C52.8328 18.4667 53.6491 18.7426 53.8519 18.7138C54.1454 18.6721 54.2309 18.541 54.2702 18.0717C54.3189 17.4891 54.3107 17.4807 53.603 17.3836C53.2089 17.3296 52.3426 17.0248 51.6777 16.7061C51.013 16.3876 50.2783 16.1269 50.045 16.1269C49.7215 16.1269 49.5564 15.9914 49.348 15.5546L49.0751 14.9823L49.7675 14.9841C50.2299 14.9852 50.9214 15.2019 51.8497 15.6364C52.6142 15.9941 53.4789 16.2877 53.7711 16.2886C54.3006 16.2904 54.3025 16.2875 54.3025 15.466C54.3025 15.0125 54.1856 14.0743 54.0429 13.3811C53.9 12.6879 53.5703 11.5681 53.3103 10.8928C53.0503 10.2175 52.453 9.0401 51.9832 8.27646C51.4969 7.48633 50.5619 6.31798 49.8131 5.56513C49.0895 4.83763 48.0283 3.92698 47.4546 3.54172C46.881 3.15631 45.8827 2.59674 45.2361 2.29799C44.5896 1.99923 43.5136 1.59518 42.8451 1.39993C41.8913 1.12146 41.084 1.03234 39.0951 0.985897C37.2879 0.943709 36.2608 0.9944 35.5162 1.16266ZM39.5281 3.80352C39.6048 3.822 40.0354 3.88741 40.4851 3.94889L41.3027 4.06058L40.6141 4.67312L39.9257 5.28584L40.2607 6.16868C40.4448 6.65418 40.6191 7.0754 40.6478 7.10451C40.6764 7.13362 41.0149 6.92922 41.3996 6.65041C41.7846 6.37178 42.4959 6.02838 42.9804 5.88743C43.4651 5.74664 43.8956 5.66537 43.9371 5.70706C43.9788 5.74876 43.7527 6.30146 43.4345 6.93543C43.1164 7.56924 42.8561 8.13371 42.8561 8.1898C42.8561 8.24589 43.1688 8.11278 43.5511 7.89415C43.9334 7.67553 44.527 7.40752 44.8702 7.29861C45.2134 7.18971 45.5316 7.13803 45.5773 7.18349C45.6227 7.22911 45.4504 7.55599 45.194 7.90985C44.9376 8.26371 44.5875 8.86432 44.4161 9.24451C44.1955 9.73376 44.0295 9.9102 43.8482 9.84855C43.7072 9.80048 43.0401 9.55732 42.3655 9.30795C41.2271 8.88705 40.963 8.85451 38.6863 8.85451C36.4472 8.85435 36.1267 8.89228 35.0071 9.28931C34.3326 9.52838 33.6586 9.77202 33.5093 9.8304C33.3273 9.9017 33.2058 9.83563 33.1405 9.62976C33.0869 9.46084 32.7195 8.82998 32.3241 8.2279C31.9285 7.62598 31.658 7.13329 31.723 7.13329C31.7877 7.13329 32.2121 7.2435 32.6657 7.37825C33.1193 7.51299 33.6846 7.77576 33.9217 7.96234C34.2521 8.22218 34.353 8.24605 34.353 8.06421C34.353 7.93356 34.1079 7.33965 33.8082 6.74411C33.4478 6.02822 33.3351 5.66161 33.4754 5.66161C33.592 5.66161 34.0396 5.78114 34.4699 5.92716C34.9003 6.07335 35.5703 6.41151 35.9588 6.67887C36.3473 6.94606 36.6858 7.13934 36.7108 7.10811C36.7357 7.07704 36.8946 6.65859 37.0639 6.17833L37.3716 5.30497L36.7032 4.68146L36.0347 4.05796L36.5225 3.9605C36.7908 3.9067 37.2132 3.86288 37.4614 3.86288C37.8558 3.86288 37.9592 3.74809 38.2837 2.94831L38.6549 2.03374L39.0219 2.90187C39.2237 3.37935 39.4516 3.78504 39.5281 3.80352ZM37.787 6.90845C37.3823 7.22568 37.0328 7.53473 37.0102 7.5954C36.9877 7.65607 37.742 7.70561 38.6863 7.70561C39.6307 7.70561 40.4004 7.66882 40.3969 7.62385C40.3935 7.57889 40.0624 7.30074 39.6612 7.00558C39.2601 6.71043 38.8399 6.43817 38.7274 6.40039C38.6149 6.36278 38.1917 6.59138 37.787 6.90845ZM27.4039 9.54931C27.6323 9.88436 27.893 10.43 27.9829 10.762L28.1466 11.3655L28.838 11.0517C29.2278 10.8746 29.8976 10.7363 30.3742 10.7343C30.8391 10.7324 31.3174 10.768 31.4371 10.8135C31.5779 10.8671 31.1542 11.4102 30.2398 12.3483C28.8326 13.7922 28.8203 13.8002 28.0272 13.7883C27.4655 13.7797 26.7896 13.9546 25.7404 14.3792C24.9213 14.711 24.1325 14.9823 23.9876 14.9823C23.8427 14.9823 23.7242 14.9429 23.7242 14.8946C23.7242 14.8464 24.0836 14.338 24.5228 13.7649C24.962 13.1917 25.525 12.293 25.7738 11.7676C26.0743 11.133 26.2524 10.4441 26.3049 9.71447C26.3772 8.708 26.4089 8.63 26.686 8.77831C26.8523 8.86743 27.1753 9.21426 27.4039 9.54931ZM51.6829 12.0324C51.9521 12.5656 52.5104 13.4169 52.9236 13.9243C53.337 14.4315 53.6349 14.8868 53.5858 14.9358C53.5368 14.9849 53.2181 14.9478 52.8776 14.8534C52.5372 14.7591 51.7848 14.4834 51.206 14.2409C50.543 13.9632 49.8538 13.7999 49.3443 13.7999C48.542 13.7999 48.5239 13.7881 47.1142 12.3458C46.3326 11.5461 45.7292 10.8555 45.7735 10.8112C45.8178 10.767 46.3016 10.7324 46.8488 10.7343C47.4597 10.7365 48.0999 10.8544 48.5077 11.0396L49.1721 11.3413L49.456 10.5422C49.612 10.1027 49.972 9.4785 50.2559 9.15522L50.7721 8.5672L50.9829 9.81519C51.0989 10.5023 51.4135 11.4988 51.6829 12.0324ZM40.1709 9.89614C40.5377 10.0628 40.9975 10.4022 41.1929 10.6505C41.3882 10.8987 41.5478 11.1472 41.5474 11.2025C41.5471 11.2578 41.1501 11.3031 40.6651 11.3031C40.0275 11.3031 39.6881 11.3892 39.4392 11.6146C39.1721 11.8564 39.0951 12.1195 39.0951 12.7905C39.0951 13.2658 39.1636 13.6972 39.2475 13.749C39.3313 13.8007 39.4967 13.713 39.6155 13.5543C39.7711 13.3456 40.0689 13.262 40.6877 13.2534C41.3803 13.2437 41.5625 13.2988 41.6392 13.5405C41.6913 13.705 41.6205 14.2301 41.4817 14.7076C41.3431 15.1849 41.0051 15.8854 40.7307 16.2641C40.4466 16.6561 39.9204 17.104 39.5085 17.3041C38.8701 17.6141 38.7086 17.6326 38.1336 17.4603C37.7113 17.3337 37.2509 17.0026 36.8256 16.5195C36.4647 16.1094 36.0499 15.4141 35.9039 14.9746C35.7578 14.5351 35.662 13.9706 35.6906 13.7204C35.7426 13.2678 35.7495 13.2653 36.9694 13.2653C38.1325 13.2653 38.1985 13.2455 38.2502 12.8807C38.2801 12.6693 38.2607 12.3211 38.2069 12.1069C38.1533 11.8929 37.88 11.5992 37.5999 11.4545C37.299 11.2988 36.8314 11.2157 36.4575 11.2514C36.1096 11.2846 35.8247 11.2645 35.8247 11.2068C35.8247 11.149 35.9845 10.8987 36.1797 10.6505C36.3751 10.4022 36.835 10.0628 37.2017 9.89614C37.5687 9.72967 38.2366 9.5933 38.6863 9.5933C39.136 9.5933 39.804 9.72967 40.1709 9.89614ZM37.0227 12.0798C37.2621 12.2549 37.1963 12.2865 36.5635 12.2999C36.1572 12.3086 35.8247 12.2655 35.8247 12.2046C35.8247 12.1434 35.8738 12.0443 35.9338 11.9845C35.9936 11.9244 36.2003 11.8754 36.3931 11.8754C36.5857 11.8754 36.8691 11.9675 37.0227 12.0798ZM41.4997 12.1365C41.537 12.2503 41.2876 12.31 40.8173 12.3001C40.4098 12.2912 40.0763 12.2351 40.0763 12.1751C40.0763 12.1153 40.1683 12.0273 40.2807 11.9799C40.3932 11.9325 40.7001 11.9079 40.963 11.9254C41.226 11.9429 41.4675 12.0378 41.4997 12.1365ZM63.8706 13.5225C63.512 13.612 62.9775 13.8483 62.6827 14.0476C62.3878 14.2469 62.0006 14.7092 61.822 15.0748C61.6435 15.4405 61.4975 16.0367 61.4975 16.3997C61.4975 16.8158 61.6351 17.264 61.8703 17.6128C62.0752 17.917 62.5209 18.3219 62.8606 18.5124C63.2004 18.703 63.8731 18.9473 64.3558 19.0553C64.8383 19.1632 65.3214 19.3579 65.4293 19.4879C65.5822 19.6722 65.5806 19.7785 65.422 19.9697C65.3088 20.1059 64.9548 20.2143 64.6253 20.2133C64.2989 20.2125 63.6384 20.0285 63.1574 19.8045C62.6763 19.5806 62.2542 19.3973 62.2194 19.3973C62.1847 19.3973 61.9377 19.8303 61.6706 20.3593L61.185 21.3215L62.1996 21.7862C63.0058 22.1553 63.507 22.2634 64.6367 22.3118C65.6509 22.3551 66.2886 22.2964 66.8588 22.107C67.2985 21.9608 67.8453 21.641 68.0736 21.396C68.302 21.1511 68.5715 20.79 68.6724 20.5937C68.7733 20.3971 68.8556 19.882 68.8552 19.449C68.8549 18.9571 68.735 18.4653 68.536 18.1389C68.3607 17.8516 68.0229 17.4889 67.7852 17.3332C67.5474 17.1774 66.754 16.8763 66.0219 16.6644C65.2898 16.4523 64.623 16.211 64.5401 16.1281C64.448 16.036 64.477 15.8715 64.6145 15.7059C64.7909 15.4933 65.0221 15.4534 65.6823 15.5214C66.1457 15.5693 66.8297 15.7639 67.2022 15.9539L67.8795 16.2994L68.0211 15.9271C68.0991 15.7222 68.2837 15.2657 68.4314 14.9125C68.6451 14.4013 68.6574 14.2428 68.4917 14.1351C68.3773 14.0608 67.9171 13.8888 67.4692 13.7529C67.0213 13.617 66.1751 13.4731 65.5887 13.4329C65.0024 13.3929 64.2292 13.4332 63.8706 13.5225ZM124.24 13.5698C123.808 13.6916 123.15 14.012 122.778 14.2818C122.406 14.5514 121.887 15.1502 121.626 15.6125C121.314 16.1649 121.122 16.7792 121.065 17.4053C121.007 18.0434 121.069 18.6687 121.252 19.2991C121.434 19.924 121.744 20.4767 122.176 20.9449C122.536 21.3362 123.2 21.8111 123.669 22.0125C124.402 22.3281 124.728 22.3669 126.159 22.3083C127.443 22.256 127.956 22.1625 128.492 21.8832L129.178 21.5252L128.805 20.6656C128.599 20.1929 128.382 19.6714 128.322 19.5066C128.22 19.223 128.182 19.2268 127.615 19.577C127.218 19.8227 126.747 19.9507 126.213 19.9582C125.487 19.9685 125.355 19.9105 124.849 19.3589C124.366 18.8314 124.289 18.635 124.289 17.9199C124.289 17.4645 124.405 16.869 124.545 16.5966C124.688 16.321 125.049 15.9979 125.358 15.8687C125.664 15.741 126.051 15.6364 126.219 15.6364C126.386 15.6364 126.885 15.82 127.328 16.0445C127.77 16.269 128.151 16.453 128.175 16.4533C128.199 16.4536 128.404 16.0344 128.63 15.5216C128.857 15.0088 129.022 14.4849 128.996 14.3573C128.971 14.2298 128.593 13.9856 128.157 13.8146C127.722 13.6437 126.839 13.4687 126.195 13.4259C125.471 13.3778 124.726 13.4326 124.24 13.5698ZM142.995 13.533C142.626 13.6161 142.029 13.9361 141.669 14.2441C141.217 14.6317 140.951 15.0315 140.809 15.5409C140.688 15.9721 140.65 16.5295 140.717 16.8855C140.784 17.2444 141.047 17.71 141.359 18.022C141.742 18.4051 142.278 18.6693 143.308 18.9836C144.156 19.242 144.729 19.5041 144.729 19.6325C144.729 19.7509 144.618 19.9404 144.482 20.0534C144.316 20.1909 143.983 20.2243 143.472 20.1543C143.053 20.0969 142.461 19.9029 142.157 19.7236C141.853 19.5442 141.544 19.3973 141.47 19.3973C141.396 19.3973 141.124 19.8063 140.866 20.306C140.406 21.1957 140.403 21.2198 140.713 21.4507C140.888 21.5803 141.424 21.8336 141.905 22.0135C142.503 22.2374 143.178 22.3404 144.041 22.3397C144.734 22.3392 145.587 22.2596 145.936 22.1628C146.284 22.066 146.873 21.7038 147.244 21.358C147.918 20.7292 147.918 20.7286 147.918 19.504C147.918 18.4231 147.87 18.2277 147.509 17.8416C147.284 17.6009 146.88 17.2889 146.61 17.1481C146.34 17.0073 145.613 16.7615 144.994 16.602C144.374 16.4424 143.792 16.2365 143.7 16.1444C143.587 16.0306 143.6 15.8969 143.743 15.725C143.87 15.5718 144.216 15.4735 144.627 15.4745C144.998 15.4753 145.691 15.6575 146.168 15.8792L147.034 16.2824L147.33 15.5914C147.492 15.2114 147.675 14.7439 147.736 14.5522C147.828 14.2602 147.745 14.1635 147.219 13.9534C146.875 13.8154 146.16 13.6226 145.631 13.5248C145.102 13.427 144.444 13.3549 144.168 13.3646C143.892 13.3742 143.365 13.4501 142.995 13.533ZM149.553 13.5425C149.373 13.6445 149.172 13.8079 149.106 13.9055C149.04 14.0031 148.985 14.2486 148.983 14.4508C148.982 14.6531 149.128 14.9659 149.308 15.1458C149.488 15.3257 149.814 15.4728 150.032 15.4728C150.266 15.4728 150.568 15.2961 150.768 15.042C150.954 14.805 151.107 14.5074 151.107 14.3805C151.107 14.2536 150.926 13.9693 150.705 13.7485C150.485 13.5278 150.209 13.3494 150.092 13.352C149.976 13.3548 149.733 13.4404 149.553 13.5425ZM70.0005 14.6552V15.7999H71.2269H72.4533V18.9885V22.1772H74.0885H75.7238V18.9885V15.7999H77.0319H78.3401V14.6552V13.5106H74.1703H70.0005V14.6552ZM81.3626 13.7099C81.3196 13.8252 80.622 15.7474 79.8123 17.9816C79.0025 20.2158 78.3401 22.0738 78.3401 22.1105C78.3401 22.1471 79.0664 22.1772 79.954 22.1772H81.568L81.774 21.4413L81.9801 20.7055H83.4092H84.8384L85.0444 21.4413L85.2505 22.1772H86.8644C87.752 22.1772 88.4779 22.1587 88.4774 22.1363C88.4769 22.1139 87.788 20.1822 86.9465 17.8439L85.4166 13.5924L83.4287 13.5464C81.9284 13.5117 81.4215 13.5518 81.3626 13.7099ZM90.1136 17.8284V22.1772H91.667H93.2205V20.9508C93.2205 19.8485 93.2523 19.7244 93.5359 19.7244C93.7514 19.7244 94.0933 20.1126 94.6156 20.9508L95.3801 22.1772H96.9984C97.8885 22.1772 98.6166 22.1376 98.6166 22.0892C98.6166 22.0408 98.1693 21.3357 97.6224 20.5225C96.6861 19.1301 96.6456 19.0306 96.9275 18.817C97.092 18.6922 97.2803 18.5877 97.3461 18.585C97.4117 18.582 97.6139 18.2883 97.7958 17.9322C97.9989 17.534 98.1261 16.9646 98.1261 16.454C98.1261 15.9611 98 15.376 97.8159 15.0153C97.6272 14.6454 97.227 14.2477 96.7939 13.9998C96.1194 13.6136 95.9259 13.5894 93.0978 13.5359L90.1136 13.4794V17.8284ZM100.579 17.8311V22.1772L103.645 22.1736C106.269 22.1705 106.805 22.1267 107.365 21.8696C107.725 21.7044 108.159 21.4124 108.329 21.2208C108.506 21.0214 108.67 20.5392 108.711 20.0939C108.751 19.6658 108.704 19.1102 108.607 18.8592C108.51 18.608 108.21 18.2769 107.94 18.1233C107.67 17.9696 107.448 17.7937 107.448 17.7322C107.447 17.6709 107.578 17.579 107.738 17.5281C107.899 17.4771 108.156 17.2217 108.311 16.9604C108.465 16.6991 108.591 16.2023 108.591 15.8565C108.59 15.5106 108.452 15.0009 108.283 14.7239C108.114 14.4469 107.691 14.079 107.343 13.9063C106.802 13.6375 106.27 13.5847 103.645 13.5387L100.579 13.4851V17.8311ZM110.746 16.6718L110.799 19.833L111.295 20.6347C111.664 21.2314 112.02 21.5534 112.686 21.8941C113.43 22.2743 113.793 22.3531 114.829 22.3585C115.515 22.3621 116.379 22.2742 116.75 22.1631C117.121 22.0521 117.712 21.7146 118.064 21.4134C118.432 21.0986 118.823 20.5529 118.984 20.1309C119.208 19.545 119.269 18.8085 119.284 16.4944L119.302 13.5924L117.708 13.5456L116.113 13.4988V16.2136C116.113 17.9428 116.045 19.0579 115.925 19.2855C115.822 19.4819 115.656 19.6967 115.557 19.7628C115.458 19.8289 115.187 19.884 114.953 19.8854C114.72 19.8868 114.389 19.7332 114.217 19.544C113.941 19.2392 113.9 18.8777 113.851 16.3554L113.797 13.5106H112.245H110.692L110.746 16.6718ZM130.994 17.8439V22.1772H132.541H134.088L134.135 20.7789L134.182 19.3805L135.014 20.738L135.846 22.0954L137.671 22.1417C138.675 22.1671 139.497 22.1411 139.497 22.0838C139.497 22.0266 138.835 21.0752 138.025 19.9697C137.216 18.8641 136.553 17.9068 136.553 17.8423C136.553 17.7778 137.142 16.8263 137.862 15.7279C138.581 14.6296 139.17 13.6813 139.17 13.6206C139.17 13.5601 138.416 13.5108 137.494 13.5111L135.818 13.5114L134.961 15.0237L134.105 16.5357L134.103 15.0232L134.101 13.5106H132.547H130.994V17.8439ZM150.583 13.8703C150.691 13.9783 150.78 14.2211 150.78 14.41C150.78 14.5988 150.691 14.8417 150.583 14.9496C150.476 15.0575 150.233 15.1458 150.044 15.1458C149.855 15.1458 149.612 15.0575 149.504 14.9496C149.396 14.8417 149.308 14.5988 149.308 14.41C149.308 14.2211 149.396 13.9783 149.504 13.8703C149.612 13.7624 149.855 13.6741 150.044 13.6741C150.233 13.6741 150.476 13.7624 150.583 13.8703ZM149.638 14.4508C149.639 14.8824 149.684 14.9945 149.789 14.8292C149.904 14.6469 149.989 14.6373 150.168 14.7865C150.36 14.9453 150.403 14.8801 150.421 14.408C150.44 13.9047 150.395 13.8376 150.039 13.8376C149.681 13.8376 149.635 13.9071 149.638 14.4508ZM150.245 14.2634C150.191 14.3177 150.049 14.3236 149.932 14.2764C149.801 14.2242 149.84 14.1854 150.03 14.1776C150.203 14.1706 150.299 14.2092 150.245 14.2634ZM37.9076 14.5243C37.752 14.625 37.7618 14.6924 37.9505 14.8163C38.0854 14.9048 38.3797 14.9772 38.6046 14.9772C38.8294 14.9772 39.1148 14.9131 39.2387 14.8345C39.3627 14.756 39.4181 14.6173 39.3617 14.5262C39.3054 14.4351 39.0008 14.3679 38.6847 14.3768C38.3686 14.3858 38.019 14.4521 37.9076 14.5243ZM37.7052 15.9634C37.9984 16.2694 38.34 16.454 38.6131 16.454C38.8539 16.454 39.2449 16.3014 39.4819 16.115C39.7188 15.9287 39.9127 15.708 39.9127 15.6244C39.9127 15.541 39.3103 15.4728 38.574 15.4728H37.2352L37.7052 15.9634ZM105.28 15.7266C105.393 15.7613 105.485 15.9734 105.485 16.1977C105.485 16.434 105.351 16.6773 105.168 16.7753C104.994 16.8683 104.59 16.9445 104.269 16.9445C103.687 16.9445 103.686 16.9435 103.686 16.2067V15.4689L104.381 15.5664C104.763 15.6198 105.168 15.692 105.28 15.7266ZM94.823 15.9961C94.9309 16.104 95.0192 16.3958 95.0192 16.6445C95.0192 16.9241 94.8985 17.1612 94.7029 17.2658C94.529 17.3589 94.1242 17.4351 93.8036 17.4351H93.2205V16.6175V15.7999H93.9236C94.3103 15.7999 94.715 15.8882 94.823 15.9961ZM83.7235 17.0644C83.8287 17.4931 83.9529 17.9726 84 18.1301C84.0718 18.3706 83.9763 18.4162 83.4012 18.4162C82.7697 18.4162 82.7251 18.3879 82.8217 18.0483C82.8794 17.8459 83.0102 17.3339 83.1126 16.9104C83.215 16.4868 83.3513 16.1729 83.4156 16.2126C83.4799 16.2523 83.6185 16.6356 83.7235 17.0644ZM105.317 19.0665C105.52 19.2698 105.601 19.4976 105.534 19.6797C105.475 19.8392 105.348 20.0238 105.251 20.0898C105.155 20.1559 104.763 20.211 104.381 20.2125L103.686 20.2149V19.4791V18.7433H104.34C104.773 18.7433 105.103 18.8523 105.317 19.0665ZM48.2523 30.5534C48.2523 30.6232 48.3259 30.6803 48.4158 30.6803C48.5057 30.6803 48.5793 30.901 48.5793 31.1708C48.5793 31.4406 48.6529 31.6614 48.7428 31.6614C48.8328 31.6614 48.9064 31.4406 48.9064 31.1708C48.9064 30.901 48.98 30.6803 49.0699 30.6803C49.1598 30.6803 49.2334 30.901 49.2334 31.1708C49.2334 31.4406 49.307 31.6614 49.3969 31.6614C49.4869 31.6614 49.5616 31.5695 49.5629 31.457C49.5647 31.3203 49.6188 31.3339 49.7264 31.4979C49.8697 31.7158 49.9053 31.7158 50.0486 31.4979C50.1562 31.3339 50.2103 31.3203 50.2121 31.457C50.2134 31.5695 50.2881 31.6614 50.3781 31.6614C50.468 31.6614 50.5416 31.4038 50.5416 31.0891C50.5416 30.6894 50.4677 30.5167 50.2963 30.5167C50.1614 30.5167 50.051 30.6271 50.051 30.762C50.051 30.8969 49.9853 31.0073 49.905 31.0073C49.8247 31.0073 49.7197 30.9051 49.6718 30.7803C49.6237 30.6551 49.2864 30.5249 48.9185 30.4899C48.552 30.4549 48.2523 30.4835 48.2523 30.5534Z" fill="white"/>
</svg>
