<svg width="92" height="38" viewBox="0 0 92 38" fill="none" xmlns="http://www.w3.org/2000/svg">
<path d="M8.22402 25.9011C8.03856 25.6234 7.78819 25.3956 7.49482 25.2377C7.15758 25.0617 6.78061 24.977 6.40097 24.992C6.23798 24.9922 6.0755 25.0094 5.91606 25.0434C5.75251 25.0801 5.59441 25.138 5.44572 25.2156C5.27311 25.3027 5.1105 25.4084 4.96076 25.5309C4.77254 25.6798 4.5958 25.8428 4.43208 26.0185V21.1246C4.4317 21.1003 4.42545 21.0763 4.41385 21.055C4.39859 21.0312 4.37715 21.0122 4.35186 20.9999C4.32387 20.9798 4.29318 20.9638 4.26071 20.9523C4.19759 20.9479 4.13423 20.9479 4.07111 20.9523C4.01042 20.9478 3.94949 20.9478 3.88881 20.9523C3.84723 20.9569 3.80663 20.9681 3.76849 20.9853C3.74248 20.9964 3.72073 21.0157 3.7065 21.0403C3.70108 21.0632 3.70108 21.0871 3.7065 21.11V31.0663C3.7006 31.0916 3.7006 31.118 3.7065 31.1433C3.71848 31.1675 3.73944 31.1859 3.76484 31.1946C3.79971 31.2097 3.83655 31.2195 3.87422 31.2239C3.92883 31.2283 3.98369 31.2283 4.0383 31.2239C4.09168 31.2283 4.14534 31.2283 4.19873 31.2239C4.23631 31.219 4.27308 31.2091 4.30811 31.1946C4.33449 31.186 4.35665 31.1677 4.37009 31.1433C4.38492 31.1204 4.39255 31.0936 4.39197 31.0663V30.3112C4.56698 30.4871 4.73106 30.6374 4.88055 30.7621C5.02008 30.878 5.16886 30.9822 5.32537 31.0736C5.46629 31.1524 5.61715 31.2116 5.77382 31.2496C5.9364 31.2876 6.10285 31.3061 6.26972 31.3046C6.63806 31.3124 7.00335 31.2359 7.33801 31.081C7.6466 30.9316 7.91533 30.7104 8.12192 30.4358C8.34402 30.131 8.50613 29.7863 8.59955 29.4203C8.8031 28.587 8.81306 27.7178 8.62876 26.8799C8.55536 26.5313 8.41811 26.1994 8.22402 25.9011ZM7.85942 29.0794C7.80623 29.356 7.70893 29.6222 7.57136 29.8676C7.44596 30.0934 7.26991 30.2866 7.05728 30.4321C6.83353 30.5799 6.57015 30.6554 6.30252 30.6484C5.96754 30.6431 5.64257 30.5329 5.37278 30.3331C5.02576 30.0765 4.71431 29.7744 4.44666 29.435V26.8946C4.60837 26.6886 4.78379 26.4939 4.9717 26.3117C5.11766 26.1677 5.27768 26.0387 5.44936 25.9268C5.59155 25.8351 5.74633 25.7647 5.90877 25.7179C6.05303 25.6742 6.20287 25.652 6.35359 25.6519C6.62606 25.6424 6.89484 25.7179 7.12288 25.8682C7.33252 26.0195 7.50262 26.2194 7.61878 26.4511C7.74948 26.7063 7.83815 26.9811 7.88129 27.2648C7.933 27.5774 7.95861 27.8938 7.95787 28.2107C7.95676 28.5074 7.92627 28.8034 7.86671 29.0941L7.85942 29.0794ZM14.7542 25.0764C14.6863 25.0698 14.6179 25.0698 14.55 25.0764C14.4772 25.0722 14.4041 25.0722 14.3312 25.0764C14.2822 25.0806 14.2341 25.093 14.1891 25.113C14.1463 25.1414 14.1152 25.1843 14.1015 25.234L12.3186 30.3295H12.2931L10.47 25.234C10.4597 25.2068 10.4463 25.181 10.4299 25.157C10.4119 25.1323 10.3862 25.1143 10.357 25.1057C10.3147 25.09 10.2706 25.0802 10.2257 25.0764C10.1517 25.0716 10.0774 25.0716 10.0033 25.0764C9.93168 25.0716 9.85985 25.0716 9.78821 25.0764C9.7465 25.0794 9.70627 25.0933 9.67153 25.1167C9.65986 25.1281 9.65059 25.1418 9.64431 25.1569C9.63804 25.172 9.6349 25.1883 9.63509 25.2046C9.63809 25.255 9.64916 25.3045 9.66789 25.3513L11.779 31.0443C11.7896 31.078 11.807 31.1092 11.83 31.1359C11.8537 31.1652 11.8854 31.1868 11.9212 31.1983L11.1008 33.2695C11.0804 33.3104 11.0704 33.3557 11.0716 33.4015C11.0774 33.4371 11.0955 33.4695 11.1227 33.4931C11.1564 33.5196 11.1968 33.5361 11.2394 33.5407C11.3037 33.5452 11.3683 33.5452 11.4326 33.5407C11.5441 33.5475 11.6557 33.5313 11.7607 33.4931C11.8168 33.4691 11.864 33.4281 11.8957 33.3758L12.7015 31.1763L14.8891 25.311C14.908 25.2668 14.9191 25.2197 14.9219 25.1717C14.9224 25.1549 14.9189 25.1383 14.912 25.123C14.9051 25.1078 14.8947 25.0943 14.8818 25.0837C14.8477 25.0585 14.8073 25.0433 14.7651 25.0397L14.7542 25.0764ZM35.3219 19.9919C34.5307 20.0212 33.5827 20.4611 32.4232 21.3885C31.9164 21.8248 30.9648 22.7155 29.5902 24.0499C28.9485 24.6694 28.7662 24.2149 28.9375 23.9033C29.3714 23.1041 29.5902 22.5469 29.5902 22.2427C29.595 22.1163 29.5727 21.9903 29.5249 21.8733C29.4771 21.7563 29.4049 21.651 29.3131 21.5645C29.2195 21.4796 29.11 21.4142 28.9911 21.3721C28.8722 21.3299 28.7462 21.3118 28.6204 21.3189C27.9509 21.3632 27.3053 21.5858 26.7499 21.9641C25.816 22.5933 24.9255 23.2853 24.0846 24.0352C23.72 24.3469 23.5231 24.0352 23.7017 23.7456C23.8804 23.4561 23.9825 23.2361 24.0882 23.0125C24.8575 21.5462 24.7226 20.5857 24.4528 19.9882C24.3898 19.8387 24.3037 19.7001 24.1976 19.5776C24.1175 19.4917 24.031 19.412 23.9387 19.3394C23.4405 18.9667 22.8311 18.7754 22.2105 18.7968C21.256 18.7954 20.3197 19.0593 19.5051 19.5593C18.7674 19.9869 18.0987 20.5245 17.5216 21.1539L16.2199 22.6826L16.3803 22.7852C16.7449 22.4186 17.0695 22.0521 17.4049 21.6855C17.9429 21.1298 18.5423 20.6378 19.1915 20.2191C19.3155 20.1458 19.4394 20.0799 19.5561 20.0175C20.1869 19.7463 22.1084 19.0901 23.0856 20.1641C23.3882 20.5674 24.0809 21.4472 22.9725 23.621C22.947 23.6723 22.9215 23.7237 22.8923 23.775C22.7574 24.0279 22.6042 24.2956 22.4365 24.5741C21.6356 25.8932 20.7463 27.1559 19.7749 28.3536C19.352 28.8705 18.9254 29.3544 18.517 29.8529C18.1086 30.3515 17.9081 30.6851 17.9081 30.85C17.9409 30.9343 17.9409 30.9673 17.97 30.9673C18.1597 30.9343 18.9181 30.1279 20.2671 28.5076C21.5627 26.9405 22.9913 25.4894 24.5367 24.1709C25.1565 23.643 25.7108 23.2141 26.1957 22.8732C26.6723 22.5354 27.2024 22.2813 27.7635 22.1217C28.3104 22.0887 28.8136 22.327 28.5693 23.0931C28.1842 23.948 27.7319 24.7705 27.2166 25.5529C27.0707 25.8022 26.3962 26.6527 25.1675 28.2143C24.0736 29.6146 23.5158 30.3625 23.5158 30.4798C23.5064 30.5381 23.5064 30.5974 23.5158 30.6558V30.773C23.5413 30.8061 23.6033 30.8061 23.6616 30.8061C23.7929 30.773 24.2887 30.2452 25.1675 29.2004C26.1629 27.9943 26.7317 27.3455 26.8192 27.2612C28.3651 25.7472 29.8855 24.2516 31.4278 22.7486C31.9813 22.2494 32.5739 21.7958 33.1998 21.3922L33.3712 21.3006H33.3931C33.9217 21.033 34.4869 20.8496 34.8515 20.956C35.2161 21.0623 35.3073 21.5499 35.238 22.0044C35.1821 22.2635 35.1019 22.5604 34.9974 22.8952C34.9244 23.1225 34.8406 23.3718 34.7458 23.6284C34.4687 24.3615 34.2025 25.0507 33.951 25.7362C33.8525 25.9965 33.7577 26.2604 33.6665 26.5207C33.6228 26.6417 33.5863 26.7626 33.5462 26.8873C33.3165 27.5251 33.0832 28.1667 32.9228 28.7422C32.5982 29.8162 32.4524 30.6337 32.9228 30.9124C33.3931 31.1909 34.2098 30.6558 34.1515 30.1572C34.1259 29.9372 34.0421 29.6586 33.9801 29.3397C33.9502 28.8482 33.987 28.3549 34.0895 27.8734C34.2791 27.0779 34.5781 26.0625 34.9937 24.8197C35.7521 22.5066 36.1167 21.2419 36.1167 21.0366C36.1167 20.3438 35.8396 19.9919 35.3109 19.9919H35.3219ZM37.1376 29.8786C36.6965 29.8786 36.4923 30.0545 36.4923 30.3918C36.4923 30.7291 36.711 30.9087 37.1231 30.9087C37.535 30.9087 37.8085 30.7291 37.8085 30.3918C37.809 30.3181 37.7904 30.2457 37.7546 30.1814C37.7188 30.1171 37.667 30.0633 37.6043 30.0252C37.4711 29.9204 37.3068 29.8636 37.1376 29.8639V29.8786ZM51.8899 27.4262C51.4415 27.1512 51.525 26.9789 52.0394 26.693C53.1111 26.0942 54.1639 25.4564 55.1968 24.7794C57.4902 23.4964 61.7087 19.7682 61.9495 19.497C62.1899 19.2257 61.9057 19.0021 61.6321 18.8261C61.5496 18.7461 61.4494 18.6868 61.3401 18.6529C61.2303 18.6191 61.1145 18.6117 61.0015 18.6313C60.8884 18.651 60.7819 18.6971 60.6901 18.766C60.5983 18.8348 60.5235 18.9246 60.4728 19.0277C60.0133 19.6663 59.5035 20.267 58.9485 20.824C58.0807 21.6488 57.0962 22.5433 56.6261 22.9245C56.2215 23.2361 55.8021 23.5551 55.3611 23.8776C54.1639 24.7731 52.9187 25.6016 51.6311 26.3594C50.9894 26.726 50.5991 26.6527 50.3366 26.506C49.8882 26.2494 49.52 26.0441 49.2427 25.8865C48.9147 25.7032 49.0167 25.4723 49.2427 25.19C50.7301 23.3278 51.835 21.9128 52.6189 20.9376L52.4588 20.5967L48.8783 24.9847C48.7856 25.1399 48.6444 25.26 48.4769 25.3262C48.3094 25.3925 48.1249 25.4014 47.9519 25.3513L47.7586 25.289C47.0587 25.0617 46.5555 24.9224 46.2529 24.8491C45.7184 24.7016 45.1665 24.6276 44.6121 24.6292C43.5887 24.5932 42.5743 24.8323 41.6734 25.322C40.8822 25.7912 40.4884 26.3484 40.4884 27.0266C40.4846 27.3073 40.5443 27.5851 40.6631 27.8391C40.7819 28.0932 40.9565 28.3167 41.1739 28.4929C41.7463 28.9804 42.5339 29.1858 43.5767 29.1858C44.0301 29.1809 44.483 29.1503 44.933 29.0941C45.2502 29.0574 45.7096 29.1711 45.3815 29.556C44.688 30.3768 43.9479 31.1565 43.1646 31.8911C42.6614 32.365 42.1344 32.8128 41.5859 33.2328C41.2213 33.5261 41.0572 33.6874 41.0572 33.746C41.0502 33.8127 41.0656 33.8798 41.1009 33.9367C42.0616 33.2367 42.9763 32.4751 43.8392 31.6565C44.2913 31.2239 44.9549 30.4908 45.8482 29.457C46.3133 29.038 46.8725 28.7386 47.4781 28.5845C48.1969 28.3896 48.899 28.137 49.5781 27.8294C49.8 27.7007 50.0515 27.6329 50.3075 27.6329C50.5636 27.6329 50.815 27.7007 51.0364 27.8294C51.3539 28.0347 51.7257 28.2583 52.1303 28.5003L54.8176 30.1279L57.3698 31.7958L58.5988 31.3449L58.9633 31.2276C55.8031 29.622 53.4539 28.3487 51.9153 27.4078L51.8899 27.4262ZM45.8372 28.3902L44.9002 28.4709C42.4646 28.5956 41.5421 27.8331 41.2067 27.2575C41.1293 27.1263 41.08 26.9803 41.0618 26.8288C41.0436 26.6773 41.0569 26.5237 41.1009 26.3777C41.2538 26.0479 41.5099 25.7775 41.8302 25.6079C42.4193 25.2634 43.0922 25.0908 43.7736 25.1093C45.0548 25.1416 46.3177 25.4229 47.4924 25.9378C47.7332 26.0405 47.9593 26.2641 47.7185 26.572L46.7889 27.7744C46.5323 28.0745 46.1958 28.2945 45.819 28.4086L45.8372 28.3902ZM49.52 27.4041C48.8031 27.6851 48.0732 27.9298 47.3323 28.1373C47.11 28.1117 47.1681 27.8514 47.2991 27.6828C47.5801 27.3162 47.8315 27.0046 48.0576 26.7077C48.1586 26.5845 48.3011 26.5032 48.458 26.4795C48.6149 26.4558 48.7749 26.4914 48.9073 26.5793L49.4614 26.8983C49.866 27.1292 49.7641 27.3235 49.5269 27.4115L49.52 27.4041ZM82.3054 28.5516C82.1744 28.5516 81.7223 28.9181 80.9163 29.567C80.1108 30.2159 79.4797 30.5824 79.0935 30.5824C78.5828 30.5824 78.3203 30.4211 78.3203 30.0985C78.3706 29.6656 78.5542 29.2593 78.8453 28.9364C79.2103 28.5259 79.356 28.317 79.356 28.3609C79.356 28.2583 79.2684 28.1996 79.0935 28.2143C78.9385 28.2985 78.801 28.4118 78.6885 28.5479C77.8793 29.1589 77.4101 29.5035 77.2814 29.5817C76.4173 30.1719 75.8009 30.4651 75.4217 30.4651C74.9115 30.4651 74.6923 30.2598 74.6923 29.9226C74.726 29.55 74.8796 29.1987 75.1301 28.9218C75.2898 28.7476 75.4406 28.5653 75.5822 28.3756C75.5532 28.2583 75.5237 28.185 75.4655 28.185C74.995 28.185 74.0363 28.6652 72.5706 29.6513C72.2278 29.8786 72.2458 29.6916 72.5268 29.3361C72.7191 29.1166 72.8774 28.8695 72.9969 28.6029C72.9964 28.5282 72.9729 28.4555 72.93 28.3946C72.8866 28.3336 72.8262 28.2874 72.7565 28.262C72.6795 28.2264 72.5955 28.2101 72.5106 28.2145C72.4262 28.219 72.3441 28.2441 72.2716 28.2876H72.2315C71.1921 29.0831 70.5942 29.523 70.4484 29.611C69.5769 30.1719 68.961 30.4834 68.5671 30.4834C68.0531 30.4834 67.8377 30.2782 67.8377 29.9409C67.8709 29.5675 68.0259 29.2156 68.2792 28.9402C68.4388 28.7659 68.5897 28.5837 68.7313 28.3939C68.7018 28.2766 68.6727 28.2033 68.6146 28.2033C68.1661 28.2033 67.2762 28.6359 65.9346 29.512C65.5116 29.7503 65.4239 29.6513 65.6029 29.424L65.6721 29.3361C65.8645 29.1166 66.0227 28.8695 66.1422 28.6029C66.1487 28.5433 66.1404 28.4831 66.1182 28.4274C66.0956 28.3718 66.0606 28.3226 66.0149 28.2839C65.9272 28.2288 65.8271 28.1966 65.7243 28.1902C65.6209 28.1838 65.5176 28.2034 65.4239 28.2473H65.3985L65.333 28.2949L65.1946 28.4013C64.2064 29.1344 63.6302 29.567 63.4517 29.688C62.4418 30.3515 61.7124 30.6741 61.1837 30.6741C60.9918 30.6747 60.8045 30.6186 60.6439 30.5128C60.5507 30.4495 60.4737 30.3655 60.4179 30.2672C60.2975 30.0289 60.4839 29.8713 60.6988 29.7393L60.852 29.6476L61.0305 29.534H61.0522L61.1583 29.4643C61.5228 29.2261 62.1133 28.8522 62.23 28.4892C62.2711 28.4113 62.2923 28.3244 62.2923 28.2363C62.2776 28.1216 62.2203 28.0167 62.1318 27.943C62.0884 27.8971 62.0363 27.8605 61.9791 27.8353C61.9214 27.8101 61.8591 27.7969 61.7964 27.7964C61.4024 27.7964 60.9756 28.0897 60.4474 28.6359C59.9187 29.1821 59.718 29.7063 59.718 30.1498C59.718 30.8574 60.0825 31.1946 60.7427 31.1946C61.7036 31.1191 62.6226 30.7665 63.3894 30.1792C63.5499 30.0692 63.7543 29.9189 64.0094 29.7246L64.0311 29.7063C64.247 29.5321 64.4777 29.3775 64.7204 29.2444C64.8154 29.2187 64.892 29.2187 64.8809 29.3031C64.8606 29.3647 64.8311 29.4228 64.7933 29.4753L64.4763 29.9409C64.2295 30.2278 64.0454 30.5638 63.9365 30.927C63.9365 30.9564 63.9656 30.9966 64.0242 31.0296C64.0602 31.0544 64.0994 31.0741 64.1405 31.0883C64.4712 30.928 64.785 30.7352 65.0779 30.5128C65.6684 30.1132 66.2516 29.7796 66.8098 29.4314C67.0612 29.2884 67.32 29.2664 67.2836 29.6367C67.2582 29.7794 67.2448 29.9241 67.2435 30.0692C67.2435 30.6704 67.5207 30.9527 68.0748 30.9527C68.735 30.9527 69.4967 30.6411 70.3718 30.0399C70.6163 29.8823 70.966 29.6146 71.4329 29.2407C71.6701 29.0501 71.9067 29.0794 71.5533 29.6073L71.3236 29.9482C71.0675 30.2293 70.8738 30.5616 70.7547 30.9233C70.7547 30.9527 70.7838 30.993 70.8424 31.026C70.8784 31.0507 70.9176 31.0704 70.9591 31.0846C71.2894 30.9243 71.6032 30.7316 71.8961 30.5091C72.512 30.0949 73.1173 29.7283 73.6972 29.3874C74.0617 29.1784 74.1382 29.3324 74.1018 29.633C74.0764 29.7758 74.063 29.9205 74.0617 30.0656C74.0617 30.6667 74.3389 30.949 74.8967 30.949C75.5532 30.949 76.3149 30.6374 77.1937 30.0362C77.3031 29.9629 77.4345 29.8676 77.5909 29.7539C77.8502 29.556 78.014 29.5377 77.9559 29.8383C77.9028 30.0055 77.8747 30.1797 77.8719 30.3551C77.8719 30.839 78.0906 31.0883 78.5611 31.0883C78.9035 31.0683 79.2375 30.9759 79.542 30.817C79.7205 30.7291 79.9941 30.817 79.7205 31.1359L75.6039 35.6889C75.0499 36.2938 74.7837 36.8216 74.7837 37.2762C74.798 37.4597 74.8233 37.6421 74.8602 37.8224C75.0291 37.8886 75.2155 37.8961 75.3894 37.8436C75.5629 37.7911 75.7142 37.6817 75.8194 37.5328C76.027 37.3349 75.6298 36.8216 75.8194 36.3634C76.0385 35.8741 76.3246 35.4176 76.6687 35.0071C77.4382 34.054 78.2659 33.0935 79.1733 32.1441C79.5858 31.7152 80.3438 30.9233 81.5179 29.7576C82.1453 29.1124 82.466 28.7459 82.466 28.6579C82.466 28.5699 82.3931 28.5699 82.3054 28.5699V28.5516ZM60.4765 29.1234C60.5609 28.9797 60.6638 28.8479 60.7828 28.7312C60.8695 28.634 60.9632 28.5434 61.0633 28.4599C61.5043 28.141 61.592 28.5405 61.4716 28.7348C61.2326 29.0008 60.9503 29.2239 60.6366 29.3947L60.5747 29.4203C60.3085 29.5193 60.4179 29.2517 60.4765 29.1234ZM91.1148 28.229C91.0806 28.2228 91.046 28.2228 91.0124 28.229C90.3808 28.7321 89.7211 29.1985 89.0364 29.6257C88.4533 30.0314 87.8042 30.3317 87.1186 30.5128H87.0928L86.9691 30.5348C86.8012 30.5348 86.9179 30.3845 87.0457 30.2525L87.0965 30.1975C87.2169 30.0713 87.3276 29.9365 87.4282 29.7943C87.6874 29.5075 87.8494 29.1456 87.8914 28.7605C87.8914 28.317 87.6436 28.097 87.162 28.097C86.8377 28.121 86.5295 28.2496 86.2836 28.4636V28.5076C85.3812 29.2472 84.4031 29.8886 83.3665 30.4211C83.2793 30.5531 83.2207 30.6264 83.2207 30.6851C83.2207 30.7437 83.3227 30.7584 83.4832 30.7584C83.8025 30.6263 84.1106 30.4694 84.4059 30.2892C84.3819 30.3394 84.3718 30.395 84.3764 30.4504C84.5351 30.6254 84.7113 30.7839 84.9014 30.9233C85.1598 31.0855 85.4619 31.1625 85.766 31.1433C86.9322 31.131 88.0708 30.7838 89.047 30.1425C89.2952 29.9812 89.9845 29.435 91.1254 28.4929C91.1618 28.4469 91.1821 28.3903 91.184 28.3316C91.184 28.2583 91.1544 28.2436 91.1254 28.2436L91.1148 28.229ZM85.598 30.4834C85.3387 30.4548 85.0892 30.3671 84.8686 30.2268C84.6684 30.0949 84.8506 29.9409 85.0144 29.8162C85.4633 29.4827 85.9662 29.0831 86.5202 28.5992C86.6102 28.5716 86.7043 28.5617 86.7975 28.5699C87.0457 28.5699 87.1804 28.6872 87.1804 28.9364C87.1394 29.2978 86.9793 29.6348 86.7246 29.8932C86.5913 30.0719 86.4192 30.2177 86.2218 30.3193C86.0238 30.421 85.8056 30.4758 85.5833 30.4798L85.598 30.4834ZM84.4604 27.5508C84.7344 27.4851 84.9863 27.3472 85.1897 27.1512C85.5362 26.8946 85.9736 26.4474 85.9952 26.0735C86.0165 25.9747 86.0275 25.8739 86.0285 25.7729C86.0285 25.5822 85.8822 25.4943 85.6345 25.4943C85.0181 25.3953 85.0693 26.3301 84.9637 26.594C84.8843 26.7967 84.7505 26.9732 84.5771 27.1036C84.3875 27.2502 84.333 27.3932 84.3621 27.4702C84.3685 27.4878 84.381 27.5029 84.3967 27.5134C84.4119 27.5239 84.4308 27.5293 84.4493 27.5288L84.4604 27.5508ZM3.53149 17.1618V2.42892H0.749512V0.790297H8.22766V2.42892H5.44572V17.1618H3.53149ZM16.0376 17.1618L13.3431 9.52594V8.35287H15.8261V2.36293H12.0524V17.1618H10.1164V0.790297H16.5152C17.3612 0.790297 17.7367 1.17887 17.7367 2.04767V8.22093C17.7367 9.09702 17.3284 9.273 17.1934 9.32066C16.6988 9.45014 16.1864 9.49719 15.6767 9.45997H15.2428L18.0284 17.1582L16.0376 17.1618ZM21.5323 17.1618C20.6791 17.1618 20.2999 16.7953 20.2999 15.9155V0.790297H22.2251V15.5929H26.2358V0.790297H28.1536V15.9155C28.1536 16.7806 27.7671 17.1618 26.903 17.1618H21.5323ZM30.7861 17.1618V0.790297H37.1194V2.42892H32.704V7.9973H36.5032V9.59195H32.704V15.5269H37.185V17.1618H30.7861ZM44.0689 17.1618V0.790297H50.362V2.42892H45.9904V8.05961H49.7239V9.65426H45.9904V17.1618H44.0689ZM52.444 0.790297H54.3655V17.1618H52.444V0.790297ZM59.0837 17.1618V2.42892H56.2981V0.790297H63.776V2.42892H60.9904V17.1618H59.0837ZM67.7066 17.1618V2.42892H64.9211V0.790297H72.399V2.42892H69.6171V17.1618H67.7066ZM74.2877 17.1618V0.790297H80.6247V2.42892H76.2092V7.9973H80.0084V9.59195H76.2092V15.5269H80.6866V17.1618H74.2877ZM83.02 17.1655V0.790297H87.866C88.2637 0.764851 88.6627 0.820581 89.0387 0.954136C89.4147 1.08769 89.7598 1.29631 90.0537 1.56745C90.3268 1.85142 90.5376 2.19016 90.6723 2.56157C90.8066 2.93298 90.862 3.32871 90.8338 3.72295V14.2805C90.8583 14.6715 90.8006 15.0633 90.664 15.4303C90.5279 15.7973 90.3162 16.1312 90.0426 16.4104C89.7474 16.6785 89.4013 16.8846 89.0258 17.0168C88.6503 17.149 88.2521 17.2045 87.8549 17.1802L83.02 17.1655ZM84.9415 15.5929H87.0563C88.2452 15.5929 88.9012 14.9697 88.9012 13.8443V4.08954C88.9012 2.98979 88.2706 2.36293 87.1223 2.36293H84.9346L84.9415 15.5929Z" fill="white"/>
</svg>
