<svg width="99" height="34" viewBox="0 0 99 34" fill="none" xmlns="http://www.w3.org/2000/svg">
<path fill-rule="evenodd" clip-rule="evenodd" d="M70.1343 2.17064V0.742676H55.0021V8.78529H53.1411V10.2377H55.0021V18.4747H70.1343V17.0067H56.8401V10.2377H59.838H67.9037V8.78529H59.838H56.8401V2.17064H70.1343Z" fill="white"/>
<path fill-rule="evenodd" clip-rule="evenodd" d="M22.1326 0.742798C21.9628 0.742798 21.8203 0.776179 21.7051 0.842941C21.5899 0.910445 21.5019 0.989076 21.4413 1.08106L12.6992 15.7799C12.5779 15.9572 12.3824 16.081 12.1481 16.081C11.8972 16.081 11.6873 15.9416 11.5698 15.7443L2.83075 1.08106C2.77011 0.980916 2.68521 0.899318 2.57606 0.837007C2.46691 0.773954 2.32744 0.742798 2.15764 0.742798H0.684082L11.3083 18.4748H12.9638L23.588 0.742798H22.1326Z" fill="white"/>
<path fill-rule="evenodd" clip-rule="evenodd" d="M76.7632 18.4747C76.933 18.4747 77.0755 18.4413 77.19 18.3746C77.3059 18.3071 77.3938 18.2284 77.4537 18.1365L86.1963 3.43764C86.3168 3.26035 86.5123 3.13647 86.7473 3.13647C86.9975 3.13647 87.2074 3.27667 87.3257 3.47399L96.0644 18.1365C96.125 18.2366 96.2092 18.3182 96.3191 18.3805C96.4275 18.4436 96.5677 18.4747 96.7375 18.4747H98.211L87.5864 0.742676H85.9317L75.3071 18.4747H76.7632Z" fill="white"/>
<path fill-rule="evenodd" clip-rule="evenodd" d="M35.249 9.88029H30.6843V2.10783H35.4903C37.8283 2.10783 39.6097 2.42692 40.8344 3.06512C42.0591 3.70409 42.6398 4.38033 42.6398 5.70019C42.6398 6.3477 42.4735 6.92922 42.1387 7.44475C41.8047 7.96105 41.3509 8.37176 40.7138 8.73899C40.0767 9.10623 39.2974 9.38883 38.3757 9.58526C37.4541 9.78246 36.4119 9.88029 35.249 9.88029ZM46.8653 19.3016H46.8707L37.8339 11.2744C37.5981 11.0563 37.3329 10.8808 37.0353 10.7496C38.1865 10.6626 39.2187 10.4763 40.1349 10.1929C41.0495 9.90798 41.832 9.54541 42.4815 9.10364C43.1317 8.66265 43.6288 8.14868 43.9752 7.5625C44.3216 6.9771 44.4948 6.32959 44.4948 5.62152C44.4948 4.02138 43.7464 2.80788 42.2503 1.9818C40.7527 1.15572 38.4888 0.742676 35.458 0.742676H28.7593V19.3016H30.6528V11.4173H34.0849C34.5921 11.4173 34.967 11.4569 35.2083 11.5353C35.4495 11.6137 35.6745 11.7496 35.8856 11.9414L38.6829 14.2767C38.6798 14.2814 38.6759 14.2868 38.6759 14.2868L47.0362 21.2503C47.0362 21.2503 50.0948 23.7239 56.0962 23.6447C54.4741 23.557 51.1981 22.8473 46.8653 19.3016Z" fill="white"/>
<path fill-rule="evenodd" clip-rule="evenodd" d="M20.9195 32.1494C20.9661 32.1494 21.0075 32.1656 21.0446 32.196L21.3725 32.489C21.1197 32.7291 20.8125 32.9162 20.4519 33.0503C20.0904 33.1845 19.6555 33.2516 19.1473 33.2516C18.7012 33.2516 18.2965 33.1887 17.9341 33.0623C17.5717 32.9367 17.2628 32.7601 17.0066 32.5328C16.7512 32.3061 16.5527 32.0336 16.4112 31.7159C16.2706 31.3982 16.2007 31.0487 16.2007 30.6674C16.2007 30.2861 16.2758 29.9366 16.4267 29.6189C16.5777 29.3012 16.79 29.0279 17.0635 28.7999C17.3362 28.5718 17.6632 28.3946 18.0446 28.2682C18.4259 28.1426 18.8461 28.0797 19.306 28.0797C19.7607 28.0797 20.1525 28.1376 20.4821 28.2527C20.8108 28.3678 21.1042 28.5245 21.3604 28.7222L21.0887 29.0364C21.0679 29.0597 21.0446 29.0795 21.0196 29.0943C20.9929 29.1098 20.9558 29.1176 20.9066 29.1176C20.8695 29.1176 20.8298 29.1063 20.7884 29.0844C20.747 29.0611 20.6969 29.0336 20.64 29.0004C20.5822 28.9686 20.5149 28.9326 20.4363 28.8952C20.3587 28.8571 20.2664 28.8225 20.1602 28.7893C20.0541 28.7561 19.9307 28.7286 19.7892 28.7067C19.6486 28.6841 19.4864 28.6728 19.3017 28.6728C18.9713 28.6728 18.6684 28.7194 18.394 28.8126C18.1196 28.9051 17.8824 29.0371 17.6839 29.2094C17.4854 29.3817 17.331 29.59 17.2206 29.8378C17.1093 30.0849 17.054 30.361 17.054 30.6674C17.054 30.983 17.1093 31.264 17.2206 31.5111C17.331 31.7583 17.482 31.9672 17.6735 32.1381C17.8642 32.3083 18.0912 32.4389 18.3526 32.5279C18.614 32.6168 18.897 32.662 19.1982 32.662C19.3828 32.662 19.5485 32.6528 19.6943 32.6352C19.841 32.6182 19.9773 32.59 20.1024 32.5526C20.2275 32.5151 20.344 32.4671 20.4519 32.4099C20.5597 32.352 20.6685 32.2828 20.7772 32.2031C20.8264 32.1678 20.8738 32.1494 20.9195 32.1494Z" fill="white"/>
<path fill-rule="evenodd" clip-rule="evenodd" d="M30.9875 30.6694C30.9875 30.3586 30.9444 30.0795 30.8565 29.8322C30.7679 29.5849 30.6442 29.3758 30.4824 29.2055C30.3221 29.0338 30.1267 28.9031 29.8975 28.8112C29.6677 28.7194 29.4115 28.6735 29.1289 28.6735C28.8478 28.6735 28.5931 28.7194 28.3632 28.8112C28.1341 28.9031 27.9386 29.0338 27.7761 29.2055C27.6136 29.3758 27.4891 29.5849 27.4006 29.8322C27.3127 30.0795 27.2695 30.3586 27.2695 30.6694C27.2695 30.9803 27.3127 31.2587 27.4006 31.5046C27.4891 31.7511 27.6136 31.9596 27.7761 32.1298C27.9386 32.3008 28.1341 32.4315 28.3632 32.5227C28.5931 32.6131 28.8478 32.6583 29.1289 32.6583C29.4115 32.6583 29.6677 32.6131 29.8975 32.5227C30.1267 32.4315 30.3221 32.3008 30.4824 32.1298C30.6442 31.9596 30.7679 31.7511 30.8565 31.5046C30.9444 31.2587 30.9875 30.9803 30.9875 30.6694ZM31.7158 30.6692C31.7158 31.0486 31.6536 31.3962 31.5299 31.7127C31.4054 32.03 31.229 32.302 31.0021 32.5309C30.7759 32.7591 30.5028 32.9364 30.1844 33.0629C29.8659 33.1887 29.5138 33.2516 29.1288 33.2516C28.743 33.2516 28.3916 33.1887 28.0739 33.0629C27.7569 32.9364 27.4853 32.7591 27.2584 32.5309C27.0308 32.302 26.8551 32.03 26.7306 31.7127C26.6062 31.3962 26.5439 31.0486 26.5439 30.6692C26.5439 30.2905 26.6062 29.9421 26.7306 29.6249C26.8551 29.3084 27.0308 29.0349 27.2584 28.8053C27.4853 28.5757 27.7569 28.3977 28.0739 28.2705C28.3916 28.1433 28.743 28.0797 29.1288 28.0797C29.5138 28.0797 29.8659 28.1433 30.1844 28.2705C30.5028 28.3977 30.7759 28.5757 31.0021 28.8053C31.229 29.0349 31.4054 29.3084 31.5299 29.6249C31.6536 29.9421 31.7158 30.2905 31.7158 30.6692Z" fill="white"/>
<path fill-rule="evenodd" clip-rule="evenodd" d="M39.5299 28.927C39.5053 28.9623 39.4806 28.9891 39.4536 29.0061C39.4273 29.0244 39.3931 29.0329 39.3502 29.0329C39.3057 29.0329 39.2532 29.0131 39.1935 28.9722C39.1339 28.9326 39.0583 28.8881 38.9669 28.8401C38.8754 28.7928 38.7656 28.7483 38.6368 28.7074C38.508 28.6679 38.3529 28.6474 38.17 28.6474C37.9974 28.6474 37.8447 28.6686 37.7119 28.7095C37.5799 28.7512 37.4693 28.8069 37.3802 28.8776C37.2912 28.9482 37.2244 29.0308 37.179 29.1261C37.1345 29.2214 37.1114 29.3245 37.1114 29.4353C37.1114 29.5765 37.1512 29.6938 37.2291 29.7869C37.3071 29.8801 37.4105 29.9592 37.5393 30.0249C37.6681 30.0906 37.8137 30.1484 37.9767 30.1965C38.1397 30.2445 38.3068 30.2946 38.4777 30.3461C38.6487 30.3977 38.8158 30.4563 38.9788 30.5212C39.1418 30.5862 39.2874 30.6674 39.4162 30.7655C39.545 30.8651 39.6476 30.9865 39.7264 31.1299C39.8043 31.2732 39.8441 31.4497 39.8441 31.6594C39.8441 31.8811 39.8011 32.0887 39.716 32.2821C39.6317 32.4763 39.5077 32.6458 39.3446 32.7891C39.1816 32.9324 38.9812 33.0454 38.7442 33.128C38.5064 33.2099 38.2376 33.2516 37.9354 33.2516C37.5663 33.2516 37.2299 33.1922 36.9269 33.0729C36.6231 32.9543 36.3646 32.794 36.1499 32.5907L36.3718 32.2666C36.3933 32.2405 36.4187 32.2186 36.4497 32.2017C36.48 32.1833 36.5142 32.1748 36.5507 32.1748C36.6072 32.1748 36.67 32.2017 36.7424 32.2546C36.8132 32.3069 36.9031 32.3655 37.0104 32.429C37.1178 32.4925 37.2474 32.5511 37.4001 32.6034C37.5528 32.6564 37.7389 32.6832 37.9584 32.6832C38.1413 32.6832 38.3044 32.6606 38.4483 32.6161C38.5907 32.5716 38.7124 32.5081 38.8118 32.4269C38.9112 32.3464 38.9875 32.249 39.04 32.136C39.0933 32.023 39.1196 31.8973 39.1196 31.7583C39.1196 31.605 39.0806 31.4801 39.0026 31.3826C38.9247 31.2845 38.8213 31.2033 38.6949 31.1369C38.5676 31.0713 38.4221 31.0148 38.259 30.9696C38.096 30.923 37.929 30.8764 37.758 30.8277C37.587 30.7797 37.42 30.7239 37.257 30.6603C37.0939 30.5968 36.9484 30.5142 36.8211 30.4132C36.6947 30.3123 36.5913 30.1852 36.5134 30.0334C36.4346 29.8823 36.3964 29.6945 36.3964 29.4706C36.3964 29.292 36.4346 29.1183 36.5134 28.9517C36.5913 28.7844 36.705 28.6361 36.8529 28.5069C37.0017 28.3777 37.1854 28.2739 37.4041 28.1962C37.6228 28.1178 37.8741 28.0797 38.1572 28.0797C38.4754 28.0797 38.7664 28.1242 39.0289 28.2139C39.2913 28.3028 39.5204 28.4327 39.716 28.6022L39.5299 28.927Z" fill="white"/>
<path fill-rule="evenodd" clip-rule="evenodd" d="M46.8058 31.5639C46.8301 31.6282 46.8537 31.6924 46.8766 31.7574C46.9002 31.6903 46.9244 31.6253 46.9494 31.5639C46.9751 31.5026 47.0035 31.4412 47.0361 31.3784L48.7182 28.1988C48.7487 28.144 48.7799 28.11 48.8119 28.0978C48.8445 28.0862 48.8909 28.0797 48.9506 28.0797H49.4472V33.2516H48.8569V29.4512C48.8569 29.4006 48.8583 29.3465 48.8604 29.2888C48.8632 29.231 48.8667 29.1725 48.8708 29.1119L47.1679 32.3457C47.1103 32.4532 47.0292 32.5081 46.9251 32.5081H46.828C46.724 32.5081 46.6428 32.4532 46.5859 32.3457L44.8442 29.1011C44.8511 29.1639 44.8567 29.2252 44.8601 29.2852C44.8636 29.3451 44.8657 29.4006 44.8657 29.4512V33.2516H44.2754V28.0797H44.7713C44.8317 28.0797 44.8782 28.0862 44.9101 28.0978C44.9427 28.11 44.9739 28.144 45.0037 28.1988L46.7205 31.382C46.7531 31.4398 46.7815 31.5004 46.8058 31.5639Z" fill="white"/>
<path fill-rule="evenodd" clip-rule="evenodd" d="M58.3138 28.0797V28.65H55.4354V30.3679H57.7657V30.9165H55.4354V32.6813H58.3138V33.2516H54.6196V28.0797H58.3138Z" fill="white"/>
<path fill-rule="evenodd" clip-rule="evenodd" d="M66.4413 28.0797V28.668H64.6115V33.2516H63.8452V28.668H62.0083V28.0797H66.4413Z" fill="white"/>
<path fill-rule="evenodd" clip-rule="evenodd" d="M71.6123 33.2516H72.1797V28.0797H71.6123V33.2516Z" fill="white"/>
<path fill-rule="evenodd" clip-rule="evenodd" d="M81.5027 32.1494C81.5493 32.1494 81.5907 32.1656 81.6287 32.196L81.9565 32.489C81.7029 32.7291 81.3958 32.9162 81.0352 33.0503C80.6737 33.1845 80.2398 33.2516 79.7308 33.2516C79.2848 33.2516 78.8801 33.1887 78.5178 33.0623C78.1563 32.9367 77.8466 32.7601 77.5904 32.5328C77.3342 32.3061 77.1366 32.0336 76.996 31.7159C76.8545 31.3982 76.7847 31.0487 76.7847 30.6674C76.7847 30.2861 76.8597 29.9366 77.0107 29.6189C77.1617 29.3012 77.373 29.0279 77.6474 28.7999C77.92 28.5718 78.2469 28.3946 78.6282 28.2682C79.0096 28.1426 79.4297 28.0797 79.8895 28.0797C80.3441 28.0797 80.7367 28.1376 81.0653 28.2527C81.394 28.3678 81.6865 28.5245 81.9427 28.7222L81.6718 29.0364C81.6511 29.0597 81.6287 29.0795 81.6028 29.0943C81.5761 29.1098 81.539 29.1176 81.4907 29.1176C81.4527 29.1176 81.413 29.1063 81.3716 29.0844C81.3293 29.0611 81.281 29.0336 81.2224 29.0004C81.1654 28.9686 81.0981 28.9326 81.0205 28.8952C80.942 28.8571 80.8505 28.8225 80.7444 28.7893C80.6375 28.7561 80.5141 28.7286 80.3735 28.7067C80.232 28.6841 80.0689 28.6728 79.8852 28.6728C79.5556 28.6728 79.252 28.7194 78.9776 28.8126C78.7024 28.9051 78.4669 29.0371 78.2676 29.2094C78.0701 29.3817 77.9148 29.59 77.8044 29.8378C77.6931 30.0849 77.6387 30.361 77.6387 30.6674C77.6387 30.983 77.6931 31.264 77.8044 31.5111C77.9148 31.7583 78.0658 31.9672 78.2573 32.1381C78.4479 32.3083 78.6748 32.4389 78.9371 32.5279C79.1985 32.6168 79.4806 32.662 79.7817 32.662C79.9663 32.662 80.1319 32.6528 80.2777 32.6352C80.4244 32.6182 80.5607 32.59 80.6858 32.5526C80.8109 32.5151 80.9273 32.4671 81.0352 32.4099C81.143 32.352 81.2508 32.2828 81.3604 32.2031C81.4096 32.1678 81.457 32.1494 81.5027 32.1494Z" fill="white"/>
<path fill-rule="evenodd" clip-rule="evenodd" d="M89.0304 28.927C89.0066 28.9623 88.9819 28.9891 88.9549 29.0061C88.9286 29.0244 88.8936 29.0329 88.8523 29.0329C88.8061 29.0329 88.7537 29.0131 88.694 28.9722C88.6352 28.9326 88.5588 28.8881 88.4673 28.8401C88.3767 28.7928 88.2661 28.7483 88.1381 28.7074C88.0093 28.6679 87.8534 28.6474 87.6705 28.6474C87.4979 28.6474 87.346 28.6686 87.2132 28.7095C87.0803 28.7512 86.9698 28.8069 86.8815 28.8776C86.7924 28.9482 86.7256 29.0308 86.6803 29.1261C86.635 29.2214 86.6127 29.3245 86.6127 29.4353C86.6127 29.5765 86.6517 29.6938 86.7304 29.7869C86.8083 29.8801 86.9117 29.9592 87.0398 30.0249C87.1686 30.0906 87.315 30.1484 87.478 30.1965C87.641 30.2445 87.808 30.2946 87.979 30.3461C88.15 30.3977 88.317 30.4563 88.4801 30.5212C88.6431 30.5862 88.7879 30.6674 88.9175 30.7655C89.0463 30.8651 89.1497 30.9865 89.2269 31.1299C89.3056 31.2732 89.3446 31.4497 89.3446 31.6594C89.3446 31.8811 89.3024 32.0887 89.2173 32.2821C89.1322 32.4763 89.0089 32.6458 88.8459 32.7891C88.6829 32.9324 88.4825 33.0454 88.2455 33.128C88.0077 33.2099 87.7381 33.2516 87.4358 33.2516C87.0668 33.2516 86.732 33.1922 86.4282 33.0729C86.1244 32.9543 85.8651 32.794 85.6504 32.5907L85.8731 32.2666C85.8945 32.2405 85.92 32.2186 85.951 32.2017C85.9812 32.1833 86.0146 32.1748 86.052 32.1748C86.1077 32.1748 86.1713 32.2017 86.2429 32.2546C86.3145 32.3069 86.4035 32.3655 86.5109 32.429C86.6191 32.4925 86.7487 32.5511 86.9006 32.6034C87.0533 32.6564 87.2394 32.6832 87.4605 32.6832C87.6426 32.6832 87.8057 32.6606 87.9488 32.6161C88.092 32.5716 88.2136 32.5081 88.3131 32.4269C88.4125 32.3464 88.488 32.249 88.5413 32.136C88.5938 32.023 88.6208 31.8973 88.6208 31.7583C88.6208 31.605 88.5819 31.4801 88.5039 31.3826C88.4252 31.2845 88.3226 31.2033 88.1954 31.1369C88.0681 31.0713 87.9234 31.0148 87.7595 30.9696C87.5965 30.923 87.4295 30.8764 87.2593 30.8277C87.0883 30.7797 86.9213 30.7239 86.7582 30.6603C86.5952 30.5968 86.4497 30.5142 86.3224 30.4132C86.1952 30.3123 86.0926 30.1852 86.0138 30.0334C85.9367 29.8823 85.8969 29.6945 85.8969 29.4706C85.8969 29.292 85.9367 29.1183 86.0138 28.9517C86.0926 28.7844 86.2055 28.6361 86.3542 28.5069C86.5022 28.3777 86.6867 28.2739 86.9046 28.1962C87.1241 28.1178 87.3746 28.0797 87.6593 28.0797C87.9766 28.0797 88.2669 28.1242 88.5294 28.2139C88.7918 28.3028 89.0209 28.4327 89.2173 28.6022L89.0304 28.927Z" fill="white"/>
<path fill-rule="evenodd" clip-rule="evenodd" d="M95.9934 0.742676V1.15038H95.2086V2.95918H94.5616V1.15038H93.7769V0.742676H95.9934Z" fill="white"/>
<path fill-rule="evenodd" clip-rule="evenodd" d="M97.4087 2.06558C97.4313 2.10668 97.452 2.1493 97.4728 2.19345C97.4926 2.14854 97.5152 2.10516 97.5377 2.06329C97.5612 2.02067 97.5837 1.97956 97.6081 1.94075L98.2829 0.818792C98.2946 0.799763 98.3072 0.783779 98.3199 0.773883C98.3325 0.763227 98.3469 0.754854 98.3623 0.749526C98.3776 0.744959 98.3957 0.742676 98.4155 0.742676C98.4353 0.742676 98.4588 0.742676 98.485 0.742676H98.9505V2.95918H98.4128V1.68347C98.4128 1.62182 98.4164 1.55407 98.4236 1.48176L97.7272 2.62199C97.7055 2.65776 97.6758 2.6844 97.6397 2.70343C97.6027 2.7217 97.5612 2.73083 97.5143 2.73083H97.4313C97.3844 2.73083 97.342 2.7217 97.3059 2.70343C97.2689 2.6844 97.24 2.65776 97.2184 2.62199L96.5183 1.48024C96.5229 1.51602 96.5265 1.55179 96.5292 1.5868C96.5319 1.62182 96.5328 1.65379 96.5328 1.68347V2.95918H95.9951V0.742676H96.4606C96.4868 0.742676 96.5093 0.742676 96.5301 0.742676C96.5499 0.742676 96.568 0.744959 96.5833 0.749526C96.5986 0.754854 96.6131 0.763227 96.6257 0.773883C96.6383 0.783779 96.651 0.799763 96.6627 0.818792L97.3393 1.94531C97.3636 1.98337 97.3862 2.02371 97.4087 2.06558Z" fill="white"/>
</svg>
