<svg width="74" height="33" viewBox="0 0 74 33" fill="none" xmlns="http://www.w3.org/2000/svg">
<path d="M39.59 5.33893L40.9113 3.94507V1.18829C40.9113 1.16776 40.9374 1.14654 40.9374 1.14654L41.1289 1.05223V0.893311H39.3567V1.04949L39.5389 1.16365C39.5911 1.19472 39.5955 1.21635 39.5955 1.23401V2.81813H36.0484L35.2479 3.81722L35.2477 1.24112L35.2528 1.19116C35.2543 1.18911 35.2664 1.17802 35.2948 1.16338L35.4627 1.06003L35.4803 1.05059V0.893311H33.7114V1.04894L33.8863 1.16064C33.912 1.17802 33.9237 1.18774 33.9276 1.18774C33.9282 1.18774 33.9286 1.18747 33.9286 1.18747L33.9293 5.92245L33.92 5.98364C33.9127 5.99486 33.8994 6.00759 33.8868 6.0158L33.7114 6.1316V6.28423H35.4803V6.12982L35.2958 6.01443C35.2671 5.99883 35.2539 5.98966 35.2493 5.98966C35.2489 5.98966 35.2484 5.9898 35.2484 5.9898L35.2479 3.81722L35.4391 3.87485L35.6845 3.73605C35.7289 3.70922 35.7678 3.69088 35.7956 3.68431C35.8104 3.67925 35.8397 3.67295 35.8948 3.67295H39.59V5.33893Z" fill="white"/>
<path d="M58.412 3.00132C58.2046 2.35524 57.7291 1.8251 56.9992 1.42568C56.341 1.06336 55.408 0.887329 54.1464 0.887329H49.3301V1.04118C49.3301 1.04118 49.5317 1.17355 49.5382 1.17355C49.5392 1.17355 49.54 1.17314 49.5401 1.17232L49.5392 1.73435H54.1387C55.0683 1.73435 55.7487 1.85631 56.1611 2.09448C56.818 2.47172 57.1381 2.96135 57.1397 3.59127C57.1397 3.90747 57.0537 4.1967 56.8843 4.45088C56.7164 4.70343 56.4584 4.91984 56.1179 5.09409C55.6727 5.32104 54.9937 5.43615 54.1003 5.43615H51.7025V2.12254H50.3907L50.3914 5.92578L50.383 5.9819C50.3748 5.99216 50.3608 6.00558 50.3483 6.01708L50.1867 6.11755L50.1726 6.1274V6.28167H54.105C54.8615 6.28167 55.4564 6.23964 55.8732 6.15628C56.4442 6.03884 56.9509 5.83475 57.3794 5.54949C57.8167 5.2604 58.1298 4.92531 58.3095 4.55368C58.4432 4.28197 58.5108 3.98166 58.5108 3.66136C58.5108 3.43345 58.4777 3.21157 58.412 3.00132Z" fill="white"/>
<path d="M41.1234 6.07818C41.0848 6.07216 41.0629 6.06409 41.0509 6.05765L44.3519 2.67971L43.5889 1.87964L39.3174 6.2716H41.2832V6.08667H41.2146C41.1818 6.08667 41.1515 6.08229 41.1234 6.07818Z" fill="white"/>
<path d="M43.944 1.67001L44.7874 2.55098L45.6595 3.4147H44.1863L43.3789 4.24652L43.5536 4.36424L43.7441 4.26295C43.7623 4.25542 43.7811 4.24803 43.7974 4.24666C43.8097 4.24461 43.8587 4.24392 43.9354 4.24392L46.4549 4.24419L48.193 6.07224C48.1928 6.07238 48.1667 6.10386 48.0157 6.10386H47.9481V6.28919H49.9137L44.7034 0.887329L43.944 1.67001Z" fill="white"/>
<path d="M31.3135 1.04937L31.4893 1.1612C31.5301 1.18844 31.5508 1.21349 31.5508 1.23566L31.5522 5.91767L31.5397 5.9779C31.5237 5.99172 31.5053 6.00733 31.4924 6.01568L31.3135 6.12915V6.28616H33.0687V6.13093L32.9066 6.01842C32.8841 6.00322 32.8711 5.99296 32.8661 5.99296C32.8661 5.99296 32.8647 5.99323 32.8643 5.99378L32.8636 1.24265L32.8682 1.19214L32.9081 1.15586L33.0687 1.04992V0.893188H31.3135V1.04937Z" fill="white"/>
<path d="M23.9533 5.24866L23.7225 5.37897C23.6608 5.41634 23.6265 5.42811 23.62 5.43085L19.6899 5.44111C18.7922 5.44111 18.1096 5.32654 17.661 5.10069C16.9841 4.75479 16.6546 4.26147 16.6532 3.59336C16.6532 3.29263 16.7412 3.00737 16.9146 2.74593C17.2539 2.25439 17.742 1.9204 18.4418 1.79269C18.6269 1.75998 18.8055 1.75217 18.9232 1.75217H20.9476C21.0685 1.74697 21.0502 1.77572 21.0539 1.78845L21.0315 1.92793H21.1993L22.0661 0.897217H19.6486C19.0896 0.897217 18.6531 0.915148 18.3511 0.9506C18.1911 0.970174 18.0404 0.996455 17.8911 1.03068C17.4958 1.11937 17.1099 1.26748 16.7439 1.47088C16.1525 1.80077 15.729 2.22031 15.485 2.71828C15.3481 3.00217 15.2794 3.31864 15.2808 3.65892C15.2794 4.52839 15.7552 5.22238 16.6949 5.72131C17.1184 5.95031 17.5951 6.10882 18.1119 6.19232C18.4984 6.25432 19.0302 6.2858 19.6925 6.2858H23.3479L24.2189 5.24428H24.1477L23.9533 5.24866Z" fill="white"/>
<path d="M22.2094 3.95246L23.0607 2.90601H17.3308L16.7539 3.75275L21.9192 3.75261C22.0165 3.76302 22.0498 3.78656 22.0533 3.80258L22.0322 3.95246H22.2094Z" fill="white"/>
<path d="M21.854 1.87928L22.017 1.93526L22.0403 1.94101L22.2892 1.81768C22.3576 1.77265 22.426 1.75061 22.4984 1.75061H25.6639L25.665 5.92479L25.6511 5.98324C25.6378 5.99925 25.6226 6.00952 25.6126 6.01404L25.432 6.13162V6.28602H27.2004V6.12902L27.0167 6.01897L26.9726 5.979C26.9717 5.96914 26.9703 5.9534 26.9712 5.93396V1.75061L29.7793 1.75034C29.8872 1.76307 29.9011 1.78757 29.9007 1.79017V1.93759H30.0584L30.9294 0.893188H22.6531L21.854 1.87928Z" fill="white"/>
<path d="M28.0867 13.113C27.4817 13.113 27.0005 12.93 26.6427 12.5638C26.2849 12.198 26.106 11.6648 26.106 10.9651C26.106 10.2855 26.2992 9.75724 26.6856 9.38109C27.0718 9.00521 27.5573 8.81714 28.1419 8.81714C28.657 8.81714 29.0925 8.92788 29.448 9.14908V10.0177C29.1129 9.67196 28.7081 9.49894 28.234 9.49894C27.8169 9.49894 27.495 9.62172 27.2681 9.86688C27.0412 10.1124 26.9278 10.4664 26.9278 10.9288C26.9278 11.3994 27.034 11.7746 27.2467 12.054C27.4593 12.3337 27.7495 12.4735 28.1173 12.4735C28.3463 12.4735 28.52 12.4493 28.6385 12.4011V11.2486H29.448V12.7752C29.0964 13.0005 28.6427 13.113 28.0867 13.113Z" fill="white"/>
<path d="M32.8561 13.113C32.2959 13.113 31.8698 12.9622 31.5775 12.6605C31.2852 12.3587 31.1392 11.8762 31.1392 11.2126V8.91382H31.9484V11.2246C31.9484 11.6429 32.0262 11.9496 32.1815 12.1446C32.3368 12.3398 32.578 12.4373 32.9051 12.4373C33.2321 12.4373 33.4734 12.3398 33.6287 12.1446C33.784 11.9496 33.8616 11.6429 33.8616 11.2246V8.91382H34.6526V11.2126C34.6526 11.8481 34.489 12.3235 34.1623 12.6394C33.8349 12.9554 33.3996 13.113 32.8561 13.113Z" fill="white"/>
<path d="M36.4507 13.0165V8.91382H39.1731L38.9586 9.59548H37.26V10.579H38.4926V11.2064H37.26V12.3349H38.9586L39.1731 13.0165H36.4507Z" fill="white"/>
<path d="M41.5886 13.113C41.1472 13.113 40.7934 13.0224 40.5278 12.8414V12.0088C40.8466 12.2905 41.2084 12.4312 41.6132 12.4312C42.1161 12.4312 42.3672 12.2403 42.3672 11.8579C42.3672 11.7094 42.3171 11.5936 42.2173 11.5111C42.117 11.4287 41.9421 11.3593 41.6928 11.3029L41.5395 11.2668C40.8364 11.0977 40.4849 10.7055 40.4849 10.0903C40.4849 9.68784 40.6124 9.3752 40.8681 9.15195C41.1235 8.92883 41.4905 8.81714 41.9687 8.81714C42.4224 8.81714 42.7783 8.90556 43.0357 9.08255V9.9152C42.9212 9.81062 42.7661 9.71617 42.5698 9.63158C42.3735 9.54712 42.163 9.50483 41.9382 9.50483C41.7011 9.50483 41.5292 9.54521 41.423 9.62556C41.3168 9.70618 41.2636 9.83074 41.2636 9.99965C41.2636 10.1525 41.3074 10.2681 41.3952 10.3465C41.4833 10.4251 41.654 10.4945 41.9076 10.5547L42.0609 10.591C42.4369 10.6795 42.7129 10.8133 42.8885 10.9923C43.0642 11.1712 43.1522 11.4236 43.1522 11.7493C43.1522 12.1678 43.0213 12.4998 42.7598 12.7448C42.4981 12.9905 42.1076 13.113 41.5886 13.113Z" fill="white"/>
<path d="M45.6548 13.0165V9.59548H44.459V8.91382H47.7456L47.531 9.59548H46.464V13.0165H45.6548Z" fill="white"/>
<path d="M19.6153 21.6238C19.3013 21.0591 18.5341 20.7668 17.6636 20.7668C15.9898 20.7668 15.0842 22.2758 15.0842 24.4875C15.0842 26.665 15.8686 27.8822 17.5415 27.8822C18.517 27.8822 19.3185 27.454 19.6153 26.7499V21.6238ZM13.3081 24.4875C13.3081 21.093 15.0842 19.4131 17.4539 19.4131C18.4979 19.4131 19.3529 19.7895 19.7708 20.3732L20.0315 19.6878H21.3397V26.973C21.3397 27.5382 21.5659 27.7954 21.9144 27.7954C22.2808 27.7954 22.4888 27.6417 22.6645 27.4875V28.773C22.5232 28.9449 22.1053 29.1853 21.443 29.1853C20.5382 29.1853 20.0152 28.7392 19.788 27.9495C19.475 28.6707 18.5857 29.2877 17.1218 29.2877C14.9782 29.2877 13.3081 27.8652 13.3081 24.4875Z" fill="white"/>
<path d="M23.4644 29.0137H25.2051V17.7019H23.4644V29.0137Z" fill="white"/>
<path d="M26.8081 29.0137H28.5508V17.7019H26.8081V29.0137Z" fill="white"/>
<path d="M36.2697 23.6981V23.4587C36.2697 21.6589 35.4146 20.8187 33.9335 20.8187C32.5057 20.8187 31.5113 21.9841 31.4426 23.6981H36.2697ZM29.6304 24.3505C29.6304 20.9041 31.8071 19.4131 33.9506 19.4131C36.0427 19.4131 37.976 20.3381 37.976 23.7326V24.9161H31.4255C31.5113 26.6821 32.4696 27.848 34.4735 27.848C36.1295 27.848 37.1057 27.2473 37.5771 26.6988V28.2763C37.1057 28.7215 36.1132 29.2878 34.3171 29.2878C31.4599 29.2878 29.6304 27.7449 29.6304 24.3505Z" fill="white"/>
<path d="M51.7931 23.9457C51.7931 21.7328 51.0715 20.5054 49.2983 20.5054C48.1913 20.5054 47.3498 20.955 47.0672 21.5944V26.8304C47.4889 27.5046 48.4204 27.6944 49.1402 27.6944C50.915 27.6944 51.7931 26.1572 51.7931 23.9457ZM45.311 19.3823H46.9449L47.0672 20.3155C47.3831 19.6942 48.2792 19.1063 49.7201 19.1063C52.0927 19.1063 53.5814 20.4379 53.5814 23.8584C53.5814 27.2793 51.688 29.0598 49.3344 29.0598C48.6132 29.0598 47.5423 28.9038 47.0672 28.2992V32.0844H45.311V19.3823Z" fill="white"/>
<path d="M54.708 28.7834H56.464V15.9431H54.708V28.7834Z" fill="white"/>
<path d="M58.0098 25.2242V19.3826H59.7484V24.8959C59.7484 26.8657 60.1331 27.7118 61.8215 27.7118C63.0314 27.7118 63.6976 27.1247 63.9627 26.6415V19.3826H65.7017V28.7842H64.0687L63.9627 27.8853C63.6118 28.4554 62.6976 29.06 61.3802 29.06C58.7977 29.06 58.0098 27.7814 58.0098 25.2242Z" fill="white"/>
<path d="M66.9833 28.3161V26.5884C67.4921 27.0896 68.3526 27.6425 69.7767 27.6425C71.2865 27.6425 71.918 27.0202 71.918 26.2258C71.918 25.379 71.5133 25.1027 70.1964 24.8607L69.5475 24.7405C67.8622 24.4291 66.8774 23.6343 66.8774 21.9581C66.8774 20.3513 68.0912 19.1063 70.4235 19.1063C71.7598 19.1063 72.7792 19.4515 73.2524 19.8666V21.5769C72.7081 20.973 71.796 20.5054 70.4601 20.5054C69.1086 20.5054 68.4768 21.0069 68.4768 21.8023C68.4768 22.6146 68.8796 22.9601 70.0915 23.1852L70.7425 23.3054C72.5682 23.6513 73.5523 24.3077 73.5523 26.0355C73.5523 27.6079 72.34 29.0599 69.8111 29.0599C68.3889 29.0599 67.4403 28.6802 66.9833 28.3161Z" fill="white"/>
<path d="M41.6732 24.1895V26.6291C41.6732 27.4173 41.9689 27.8465 42.6655 27.8465C43.3469 27.8465 43.8325 27.469 44.1124 27.092V28.6006C43.853 28.8748 43.2421 29.2522 42.2821 29.2522C40.6634 29.2522 39.9478 28.3423 39.9478 26.7314V23.6082L41.6732 24.1895Z" fill="white"/>
<path d="M44.0515 19.4588H41.6878V17.4587L39.9459 16.9568V19.4588H38.2835L37.7969 21.1724H39.9459V22.6694L41.6878 23.1713V21.1724H43.5632L44.0515 19.4588Z" fill="white"/>
<path d="M0.239258 19.3125H2.11674L3.94011 26.1817L6.42511 19.3125H7.22015L9.72532 26.1817L11.4911 19.3125H13.2368L10.4846 29.4673H9.307L6.7665 22.5797L4.20457 29.4673H3.02794L0.239258 19.3125Z" fill="white"/>
</svg>
