<svg width="109" height="47" viewBox="0 0 109 47" fill="none" xmlns="http://www.w3.org/2000/svg">
<path fill-rule="evenodd" clip-rule="evenodd" d="M30.1673 9.16605C30.0196 9.22557 29.9002 9.38657 29.9019 9.5238C29.9036 9.66124 30.6102 10.9779 31.4721 12.4497C32.601 14.3776 33.1524 15.1259 33.4444 15.1259C33.7365 15.1259 34.2879 14.3776 35.4167 12.4497C36.2787 10.9779 36.9852 9.6636 36.987 9.52893C36.9887 9.39427 36.8372 9.22578 36.6502 9.15428C36.4633 9.08277 34.9886 9.03203 33.3731 9.04124C31.7577 9.05045 30.3151 9.10675 30.1673 9.16605ZM47.144 9.16605C46.9963 9.22557 46.8771 9.38657 46.879 9.5238C46.8811 9.66124 47.5834 10.9779 48.4398 12.4497C49.6026 14.4485 50.1041 15.1259 50.4211 15.1259C50.7381 15.1259 51.2396 14.4485 52.4024 12.4497C53.2588 10.9779 53.9611 9.6636 53.9632 9.52893C53.9652 9.39427 53.8139 9.22578 53.6269 9.15428C53.4399 9.08277 51.9653 9.03203 50.3498 9.04124C48.7344 9.05045 47.2918 9.10675 47.144 9.16605ZM35.7509 12.5724C34.896 14.0623 34.1965 15.4044 34.1965 15.5551C34.1965 15.706 34.3496 15.8878 34.5365 15.9593C34.7235 16.0308 36.2105 16.0893 37.8409 16.0893C40.1659 16.0893 40.8613 16.0225 41.0637 15.7795C41.273 15.5283 41.0195 14.9512 39.7236 12.7287C38.6655 10.9141 37.9869 9.96675 37.7154 9.92585C37.3927 9.87726 36.9741 10.4412 35.7509 12.5724ZM45.416 10.5765C45.185 10.9593 44.4485 12.2076 43.7794 13.3508C42.7257 15.1509 42.5981 15.4855 42.8259 15.8491C43.0343 16.1815 43.0324 16.3363 42.8166 16.5954C42.5884 16.8692 42.8048 17.3669 44.1498 19.6635C45.182 21.4261 45.8976 22.4265 46.1542 22.4657C46.4617 22.5126 46.9097 21.9123 48.111 19.8431C48.968 18.3672 49.669 17.0171 49.669 16.8426C49.669 16.6684 49.4515 16.475 49.1855 16.4132C48.9194 16.3515 47.4448 16.2742 45.9083 16.2417L43.1147 16.1824L46.0519 16.1357C47.6674 16.1102 49.1421 16.0308 49.329 15.9593C49.516 15.8878 49.669 15.6951 49.669 15.5311C49.669 15.3671 48.9691 14.0287 48.1138 12.5568C47.0967 10.8066 46.4335 9.88068 46.1973 9.88068C45.9986 9.88068 45.647 10.1937 45.416 10.5765ZM41.0732 16.162C41.0732 16.3104 41.1879 16.5461 41.328 16.6857C41.5247 16.8816 41.6721 16.8593 41.9727 16.5883C42.1872 16.3952 42.3623 16.1796 42.3621 16.1096C42.3619 16.0396 42.0718 15.9621 41.7174 15.9373C41.3188 15.9094 41.0732 15.9953 41.0732 16.162ZM34.4652 16.4451C34.3175 16.5046 34.1965 16.6932 34.1965 16.8647C34.1965 17.036 34.8977 18.3779 35.7545 19.8465C36.947 21.8902 37.406 22.5038 37.7109 22.461C37.9673 22.4248 38.6444 21.4901 39.6125 19.8358C40.4392 18.4228 41.2088 17.2327 41.3225 17.191C41.4361 17.1494 41.3633 16.9326 41.1604 16.7093C40.8301 16.3455 40.4762 16.3051 37.7627 16.3203C36.0969 16.3295 34.613 16.3858 34.4652 16.4451ZM41.9003 17.115C41.7071 17.152 40.8551 18.3832 40.0069 19.8512C39.1585 21.319 38.4968 22.6868 38.5361 22.8906C38.6004 23.2229 38.9509 23.2612 41.9328 23.2612C44.9002 23.2612 45.2654 23.2218 45.3285 22.8947C45.3676 22.6933 44.6912 21.295 43.8256 19.7879C42.6956 17.8206 42.1524 17.0666 41.9003 17.115ZM45.6156 23.009C45.4547 23.2036 45.3853 23.5248 45.4615 23.7224C45.5585 23.9741 45.6681 24.0144 45.826 23.857C45.9504 23.7331 46.0198 23.4122 45.9803 23.1435C45.9148 22.6995 45.8819 22.6873 45.6156 23.009ZM38.7323 23.7778C38.56 23.8866 38.4818 24.1533 38.5482 24.4066C38.6118 24.6485 39.3121 25.959 40.1046 27.3186C41.0996 29.0256 41.6656 29.7909 41.9328 29.7909C42.1999 29.7909 42.7659 29.0256 43.7609 27.3186C44.5534 25.959 45.2537 24.6485 45.3174 24.4066C45.3838 24.1533 45.3055 23.8866 45.1332 23.7778C44.9686 23.674 43.5284 23.589 41.9328 23.589C40.3372 23.589 38.8969 23.674 38.7323 23.7778ZM37.0385 25.0275C36.8127 25.3514 36.0704 26.6038 35.3894 27.811C34.7005 29.0316 34.2056 30.148 34.2743 30.3266C34.3764 30.5916 34.9536 30.6473 37.6018 30.6473C39.9678 30.6473 40.8662 30.5745 41.0375 30.3692C41.2116 30.16 40.868 29.3895 39.6527 27.2649C38.7637 25.7104 37.9043 24.4387 37.7427 24.4387C37.5814 24.4387 37.2644 24.7035 37.0385 25.0275ZM44.4571 26.8367C43.6878 28.1673 42.9522 29.4623 42.8224 29.7149C42.6415 30.0671 42.6548 30.2307 42.8796 30.4165C43.0766 30.5794 44.2212 30.6396 46.3645 30.5996C49.003 30.5505 49.5669 30.4844 49.6183 30.2181C49.6522 30.041 48.9766 28.6933 48.1166 27.2234C47.2566 25.7534 46.3961 24.5207 46.2044 24.4843C45.958 24.4374 45.4459 25.127 44.4571 26.8367ZM41.3347 30.0879C41.321 30.2189 41.2806 30.5188 41.2451 30.7543C41.1935 31.0969 41.2872 31.1705 41.7134 31.1228C42.0063 31.09 42.3357 30.9738 42.4455 30.8644C42.5684 30.7419 42.5469 30.5473 42.3894 30.3583C42.2487 30.1896 41.9594 30.0059 41.7467 29.9504C41.5339 29.895 41.3485 29.9569 41.3347 30.0879ZM34.2784 31.3859C34.2127 31.5565 34.8597 32.9091 35.7165 34.3917C36.5733 35.8743 37.3596 37.1398 37.464 37.204C37.5682 37.2684 37.7849 37.2123 37.9454 37.0798C38.1057 36.9471 38.9305 35.6403 39.7778 34.1755C40.6253 32.7107 41.2578 31.414 41.1832 31.2938C41.1007 31.1607 39.7511 31.0755 37.723 31.0755C35.0168 31.0755 34.3758 31.1333 34.2784 31.3859ZM42.6804 31.2968C42.605 31.4187 43.1948 32.6469 43.9912 34.0265C44.7876 35.4061 45.584 36.7032 45.7609 36.9094C45.9378 37.1156 46.161 37.2841 46.2573 37.2841C46.3534 37.2841 47.159 36.0556 48.0474 34.5544C48.9358 33.0532 49.664 31.6563 49.6658 31.4501C49.6688 31.1089 49.3638 31.0755 46.2433 31.0755C44.1165 31.0755 42.7657 31.1594 42.6804 31.2968ZM32.7439 32.4026C32.5092 32.7912 31.7644 34.0535 31.089 35.2074C30.4135 36.3613 29.9148 37.4453 29.9805 37.6159C30.0779 37.8687 30.7213 37.9263 33.4444 37.9263C36.1527 37.9263 36.8114 37.8679 36.9072 37.6189C36.9723 37.4498 36.3023 36.077 35.4182 34.5681C34.5341 33.0592 33.6668 31.7957 33.4908 31.7603C33.3146 31.7248 32.979 32.0134 32.7439 32.4026ZM49.7206 32.4026C49.4859 32.7912 48.7411 34.0535 48.0656 35.2074C47.3902 36.3613 46.8915 37.4453 46.9572 37.6159C47.0546 37.8687 47.698 37.9263 50.4211 37.9263C53.1294 37.9263 53.7881 37.8679 53.8839 37.6189C53.949 37.4498 53.279 36.077 52.3949 34.5681C51.5108 33.0592 50.6435 31.7957 50.4675 31.7603C50.2913 31.7248 49.9556 32.0134 49.7206 32.4026Z" fill="white"/>
<path fill-rule="evenodd" clip-rule="evenodd" d="M90.7605 23.8123H90.7017V32.4825L91.5856 33.1291C91.7624 33.2467 91.9392 33.3053 92.1161 33.3053H92.175V24.6351L91.2909 23.9885C91.1141 23.8709 90.9373 23.8123 90.7605 23.8123Z" fill="white"/>
<path fill-rule="evenodd" clip-rule="evenodd" d="M71.3705 15.6417V14.1428H69.8677V21.9018H71.3705V18.4926C71.3705 16.641 72.225 15.4066 73.8753 15.4066C74.1404 15.4066 74.3468 15.4359 74.6119 15.4947V14.1428C74.4057 14.0546 74.1699 14.0251 73.8753 14.0251C72.8439 14.0251 71.783 14.6718 71.3705 15.6417Z" fill="white"/>
<path fill-rule="evenodd" clip-rule="evenodd" d="M86.6938 23.8123H86.6348V32.4825L87.5189 33.1291C87.6957 33.2467 87.8725 33.3053 88.0493 33.3053H88.1082V24.6351L87.2242 23.9885C87.0474 23.8709 86.8706 23.8123 86.6938 23.8123Z" fill="white"/>
<path fill-rule="evenodd" clip-rule="evenodd" d="M79.6807 20.7266C78.06 20.7266 77.117 19.4922 77.117 17.9933C77.117 16.4943 78.06 15.2599 79.6807 15.2599C81.3014 15.2599 82.3329 16.4943 82.3329 17.9933C82.3329 19.4922 81.3014 20.7266 79.6807 20.7266ZM82.3329 15.4657C81.8319 14.5252 80.7416 13.9373 79.6219 13.9373C77.2349 13.9373 75.6436 15.789 75.6436 17.9933C75.6436 20.168 77.2349 22.0491 79.6219 22.0491C80.7416 22.0491 81.8319 21.4614 82.3329 20.4914V21.8435H83.7766V14.1431H82.3329V15.4657Z" fill="white"/>
<path fill-rule="evenodd" clip-rule="evenodd" d="M105.094 22.1374H105.153V13.4671L104.269 12.8206C104.092 12.7029 103.915 12.6443 103.739 12.6443H103.68V21.3144L104.564 21.961C104.741 22.0785 104.917 22.1374 105.094 22.1374Z" fill="white"/>
<path fill-rule="evenodd" clip-rule="evenodd" d="M70.8992 30.808L68.4827 25.5764L66.0665 30.808L63.9447 25.4294H62.3535L65.477 32.9242H66.5085L68.4534 28.8388L70.3983 32.9242H71.4296L74.6121 25.4294H73.0209L70.8992 30.808Z" fill="white"/>
<path fill-rule="evenodd" clip-rule="evenodd" d="M79.6807 32.0126C78.06 32.0126 77.117 30.7781 77.117 29.2792C77.117 27.7803 78.06 26.5459 79.6807 26.5459C81.3014 26.5459 82.3329 27.7803 82.3329 29.2792C82.3329 30.7781 81.3014 32.0126 79.6807 32.0126ZM82.3329 26.7516C81.8319 25.8111 80.7416 25.2234 79.6219 25.2234C77.2349 25.2234 75.6436 27.0749 75.6436 29.2792C75.6436 31.4541 77.2349 33.3351 79.6219 33.3351C80.7416 33.3351 81.8319 32.7472 82.3329 31.7774V33.1294H83.7766V25.429H82.3329V26.7516Z" fill="white"/>
<path fill-rule="evenodd" clip-rule="evenodd" d="M89.3758 19.7276L86.9889 14.1433H85.3682L88.8454 21.8437H89.8473L93.354 14.1433H91.7627L89.3758 19.7276Z" fill="white"/>
<path fill-rule="evenodd" clip-rule="evenodd" d="M95.6122 17.2878C95.8059 15.9446 96.5885 15.1424 97.9802 15.1424C99.2179 15.1424 100.102 15.9652 100.102 17.2878H95.6122ZM101.546 17.5818C101.546 15.5243 100.249 13.9373 97.9802 13.9373C95.5639 13.9373 94.1494 15.7008 94.1494 18.0225C94.1494 20.2269 95.4165 22.0491 98.0392 22.0491C99.9252 22.0491 101.192 20.903 101.457 19.5803H100.014C99.8072 20.2269 99.2474 20.7853 98.0392 20.7853C96.4715 20.7853 95.7188 19.8532 95.5858 18.4634H101.487C101.487 18.4634 101.546 18.1108 101.546 17.5818Z" fill="white"/>
<path fill-rule="evenodd" clip-rule="evenodd" d="M95.6122 28.5964C95.8059 27.2532 96.5885 26.451 97.9802 26.451C99.2179 26.451 100.102 27.2738 100.102 28.5964H95.6122ZM101.546 28.8903C101.546 26.8329 100.249 25.2458 97.9802 25.2458C95.5639 25.2458 94.1494 27.0094 94.1494 29.3311C94.1494 31.5354 95.4165 33.3576 98.0392 33.3576C99.9252 33.3576 101.192 32.2116 101.457 30.8888H100.014C99.8072 31.5354 99.2474 32.0938 98.0392 32.0938C96.4715 32.0938 95.7188 31.1618 95.5858 29.772H101.487C101.487 29.772 101.546 29.4194 101.546 28.8903Z" fill="white"/>
<path fill-rule="evenodd" clip-rule="evenodd" d="M67.0621 20.7113C65.7371 20.5957 65.2117 19.812 65.2117 18.4049V15.3777H67.0388L67.628 14.6723C67.7459 14.5254 67.805 14.3489 67.805 14.2021V14.1433H65.2117V12.6443H63.7383V18.4343C63.7383 20.2759 64.7151 21.7919 66.6897 22.0189L67.0621 20.7113Z" fill="white"/>
<path fill-rule="evenodd" clip-rule="evenodd" d="M106.991 31.9974C105.666 31.8819 105.141 31.0981 105.141 29.6911V26.6639H106.968L107.557 25.9584C107.675 25.8115 107.734 25.635 107.734 25.4882V25.4294H105.141V23.9304H103.667V29.7205C103.667 31.5621 104.644 33.078 106.619 33.305L106.991 31.9974Z" fill="white"/>
<path fill-rule="evenodd" clip-rule="evenodd" d="M107.349 13.6531V13.7635H107V14.8365H106.873V13.7635H106.523V13.6531H107.349ZM108.615 13.6531V14.8365H108.488V13.8661L108.124 14.442H107.998L107.634 13.8661V14.8365H107.507V13.6531H107.634L108.061 14.3284L108.488 13.6531H108.615Z" fill="white"/>
</svg>
